<?xml version="1.0" standalone="no"?>
<!DOCTYPE svg PUBLIC "-//W3C//DTD SVG 20010904//EN"
 "http://www.w3.org/TR/2001/REC-SVG-20010904/DTD/svg10.dtd">
<svg version="1.0" xmlns="http://www.w3.org/2000/svg"
 width="1778.000000pt" height="2465.000000pt" viewBox="0 0 1778.000000 2465.000000"
 preserveAspectRatio="xMidYMid meet">
<metadata>
Created by potrace 1.16, written by Peter Selinger 2001-2019
</metadata>
<g transform="translate(0.000000,2465.000000) scale(0.100000,-0.100000)"
fill="#000000" stroke="none">
<path d="M8470 24639 c-785 -46 -1503 -200 -2155 -461 -206 -82 -596 -276
-798 -397 -476 -284 -879 -595 -1271 -980 -261 -258 -457 -478 -642 -723 -106
-139 -201 -244 -449 -497 -222 -225 -308 -305 -446 -411 -184 -142 -297 -270
-368 -421 -52 -108 -71 -181 -78 -299 -5 -79 -9 -99 -28 -120 -65 -73 -105
-172 -105 -259 0 -43 -3 -48 -36 -66 -20 -11 -61 -43 -90 -72 -120 -118 -175
-244 -175 -396 1 -51 5 -105 9 -122 8 -28 4 -34 -48 -85 -99 -96 -157 -224
-167 -367 -5 -69 -9 -83 -23 -83 -9 0 -50 -11 -90 -25 -252 -86 -456 -316
-531 -600 -31 -117 -31 -309 0 -425 47 -178 162 -355 301 -464 40 -31 80 -61
89 -65 14 -8 12 -16 -11 -68 -37 -78 -49 -130 -50 -214 l-2 -70 -43 -32 c-114
-81 -185 -229 -199 -414 -6 -72 -9 -83 -25 -83 -23 0 -23 -9 -5 -76 l13 -51
-76 -6 c-137 -9 -267 -73 -374 -182 -45 -46 -267 -354 -267 -370 0 -3 123 -5
274 -5 307 0 306 0 306 -68 0 -63 -8 -66 -86 -43 -77 22 -328 81 -348 81 -9 0
6 -62 47 -197 58 -192 60 -202 61 -318 1 -136 -9 -191 -84 -440 -91 -302 -94
-316 -95 -470 0 -132 2 -143 27 -198 31 -66 107 -150 183 -202 l53 -37 -18
-41 c-36 -82 -69 -208 -57 -212 92 -30 207 -79 254 -106 59 -35 253 -221 253
-244 0 -6 11 -18 25 -25 l24 -13 -31 -43 c-17 -24 -35 -41 -39 -38 -5 3 -11
-5 -14 -18 -31 -137 -36 -171 -34 -265 l1 -103 -40 -30 c-53 -38 -113 -115
-147 -185 -26 -56 -65 -191 -65 -227 0 -17 -2 -18 -31 -3 -17 9 -33 14 -36 12
-9 -10 38 -312 58 -372 25 -72 48 -113 103 -179 l40 -49 -25 -16 c-86 -56
-162 -163 -201 -281 -15 -49 -21 -94 -22 -181 l-2 -117 -51 -57 c-150 -168
-170 -375 -55 -573 l25 -43 -26 -52 c-37 -77 -47 -122 -47 -223 0 -150 49
-269 161 -388 43 -47 59 -71 59 -92 0 -27 13 -94 26 -136 4 -13 0 -18 -13 -18
-41 0 -249 -81 -324 -126 -45 -27 -117 -82 -161 -123 -74 -69 -265 -288 -257
-295 9 -7 345 -47 509 -61 234 -20 242 -22 257 -65 16 -47 15 -105 -3 -230
-30 -212 -15 -373 56 -590 86 -264 217 -437 420 -554 60 -34 106 -51 225 -79
129 -32 308 -67 336 -67 5 0 -10 -24 -34 -53 -23 -29 -53 -76 -65 -105 -46
-106 -45 -267 1 -414 l23 -73 -38 -50 c-181 -235 -183 -573 -4 -763 17 -19 50
-47 74 -63 32 -23 42 -37 42 -57 0 -15 11 -58 25 -96 20 -56 36 -82 85 -131
l61 -62 -28 -18 c-49 -32 -131 -116 -162 -164 -59 -93 -75 -206 -46 -330 l16
-64 -52 -116 c-55 -123 -100 -284 -120 -425 -21 -150 18 -328 94 -435 l33 -46
-18 -30 c-66 -107 -83 -310 -36 -442 14 -39 40 -92 57 -118 l31 -47 -40 -50
c-177 -222 -152 -519 64 -755 l59 -64 -2 -92 c-3 -114 10 -171 57 -267 44 -91
147 -198 239 -250 45 -25 61 -39 56 -50 -3 -8 -8 -67 -11 -131 -4 -95 -1 -130
17 -200 69 -276 275 -463 580 -524 113 -23 304 -16 411 15 340 98 557 326 639
670 29 119 44 299 33 395 l-9 80 39 58 c45 66 82 145 92 197 4 19 10 43 12 52
4 13 28 -14 86 -95 495 -692 1080 -1193 1813 -1552 1977 -970 4825 -865 6600
243 520 325 990 772 1369 1304 61 85 86 113 90 101 2 -10 8 -34 12 -53 10 -52
49 -135 92 -199 l39 -56 -9 -80 c-11 -102 5 -286 38 -414 90 -356 340 -593
705 -667 114 -23 306 -15 404 16 360 115 580 423 535 751 -6 44 -13 86 -15 92
-3 7 23 28 58 47 92 52 195 159 239 250 47 96 60 153 57 267 l-2 92 56 51 c68
62 111 128 145 222 23 65 26 88 26 208 0 118 -3 142 -24 195 -27 69 -41 93
-89 153 -31 39 -32 44 -19 60 26 29 56 95 73 163 33 122 15 384 -30 445 -11
16 -9 24 16 61 17 24 42 73 57 110 25 64 27 77 27 233 0 185 -15 265 -82 433
l-34 88 12 96 c20 163 -3 322 -63 423 -32 54 -117 138 -179 175 -74 46 -213
91 -329 107 l-94 14 39 24 c132 81 332 270 456 430 343 441 490 912 490 1575
0 267 -21 440 -72 601 l-20 61 90 134 c265 396 336 620 336 1054 0 232 -8 316
-46 515 l-20 105 44 115 c25 63 81 228 126 365 165 508 194 574 328 753 115
154 205 295 279 437 57 110 140 313 149 366 3 19 13 72 23 119 27 136 23 501
-6 690 -54 337 -157 660 -312 975 -86 175 -163 298 -259 417 -68 84 -118 125
-257 208 l-93 56 122 185 c120 181 236 389 242 432 2 12 12 56 23 98 33 124
45 267 39 454 -11 337 -101 703 -267 1087 -93 215 -166 339 -302 510 l-21 27
41 45 c111 120 185 251 224 398 30 114 30 307 -1 423 -75 284 -279 514 -531
600 -40 14 -81 25 -90 25 -14 0 -18 14 -23 83 -10 143 -68 271 -167 367 -52
51 -56 57 -48 85 4 17 8 71 9 122 0 153 -55 278 -176 396 -31 30 -71 63 -90
73 -32 17 -35 22 -35 65 0 87 -40 185 -105 259 -19 21 -23 41 -28 120 -8 120
-27 193 -78 299 -70 148 -169 263 -349 406 -180 142 -222 180 -445 407 -265
267 -359 371 -469 516 -304 402 -729 838 -1141 1169 -538 432 -1147 779 -1760
1004 -591 216 -1256 346 -1990 389 -196 11 -746 11 -945 -1z m970 -179 c1361
-84 2453 -474 3460 -1236 485 -367 876 -756 1268 -1261 133 -172 267 -319 537
-589 137 -137 275 -264 366 -337 275 -218 380 -372 396 -576 23 -302 -215
-522 -567 -523 -133 0 -244 23 -371 76 -39 16 -62 58 -52 95 8 33 35 33 131 2
127 -42 238 -61 351 -61 151 0 246 34 315 111 49 53 73 109 85 193 30 210 -76
400 -324 580 -89 65 -579 552 -716 711 -47 55 -130 159 -186 230 -508 657
-1181 1247 -1883 1650 -808 465 -1610 702 -2700 797 -91 8 -315 13 -600 13
-527 0 -767 -16 -1190 -81 -912 -140 -1687 -436 -2430 -929 -615 -408 -1139
-897 -1594 -1488 -54 -70 -141 -175 -193 -235 -164 -183 -594 -606 -678 -667
-248 -181 -354 -370 -325 -578 19 -134 82 -223 193 -273 54 -24 78 -28 177
-32 133 -5 241 12 381 59 95 32 123 31 132 -2 11 -42 -12 -76 -66 -99 -162
-70 -366 -92 -522 -55 -317 73 -479 356 -372 647 55 152 147 261 366 435 234
186 709 672 887 906 709 933 1662 1671 2689 2082 585 234 1306 389 2030 434
192 12 815 12 1005 1z m-210 -180 c1325 -47 2386 -374 3365 -1037 578 -392
1074 -859 1511 -1423 65 -84 161 -201 213 -259 169 -189 592 -606 676 -666
101 -73 165 -134 220 -210 70 -97 89 -154 89 -265 0 -117 -24 -180 -91 -240
-66 -57 -126 -75 -258 -74 -118 1 -205 17 -352 64 -77 25 -97 28 -123 19 -56
-20 -77 -102 -44 -173 16 -32 16 -36 -6 -80 -29 -62 -81 -102 -236 -184 -72
-38 -158 -88 -191 -110 -66 -45 -162 -135 -209 -196 l-30 -39 -47 59 c-26 33
-70 110 -98 174 -29 63 -94 199 -145 301 -516 1035 -1285 1860 -2189 2346
-1331 718 -3116 752 -4490 87 -513 -248 -978 -594 -1394 -1038 -452 -482 -796
-1007 -1103 -1680 -56 -123 -122 -227 -157 -246 -13 -7 -27 5 -65 51 -75 94
-190 179 -354 259 -168 83 -204 108 -237 164 -33 58 -38 95 -20 139 30 73 10
146 -45 165 -25 9 -47 6 -128 -19 -156 -48 -230 -62 -347 -63 -132 -1 -192 17
-258 74 -112 99 -127 302 -34 459 47 79 137 172 241 248 102 74 382 346 606
588 154 166 180 198 321 379 652 844 1556 1545 2514 1950 653 277 1474 447
2295 475 315 11 312 11 600 1z m-96 -3316 l173 -539 574 3 c510 3 572 2 559
-12 -8 -8 -215 -159 -460 -336 -245 -176 -446 -326 -447 -333 -2 -6 76 -250
172 -542 96 -291 172 -531 170 -533 -2 -2 -209 146 -460 330 -251 183 -460
332 -463 331 -4 -1 -211 -152 -460 -334 -249 -182 -455 -329 -457 -327 -2 2
74 242 170 533 96 292 174 536 172 542 -1 7 -202 157 -447 333 -245 177 -452
328 -460 336 -13 14 49 15 559 12 l574 -3 138 430 c77 237 155 481 175 543 20
63 38 112 40 109 2 -2 82 -246 178 -543z m6386 -736 c60 -41 75 -71 78 -156 1
-42 -1 -82 -5 -89 -6 -8 -23 -9 -61 -2 -126 23 -244 -30 -377 -170 -288 -302
-311 -321 -426 -329 l-66 -4 -21 34 c-48 77 -157 76 -197 -2 -21 -41 -19 -74
11 -141 49 -109 18 -216 -91 -317 -158 -147 -349 -167 -442 -46 -21 29 -28 50
-31 100 -6 93 34 173 136 273 64 64 99 87 212 146 74 38 159 86 190 106 106
69 177 158 206 257 9 28 16 52 17 52 1 0 25 -7 52 -16 129 -39 337 -26 477 31
123 50 244 163 280 261 7 19 15 34 19 34 3 0 21 -10 39 -22z m-13001 -161
c144 -153 385 -217 646 -172 48 9 89 14 90 13 1 -2 9 -24 19 -51 25 -68 86
-145 158 -199 34 -25 129 -82 212 -125 130 -67 162 -89 228 -154 102 -100 142
-180 136 -273 -3 -50 -10 -71 -31 -100 -49 -64 -131 -92 -217 -76 -75 14 -154
57 -223 121 -111 101 -142 209 -93 318 30 67 32 100 11 141 -40 78 -149 79
-197 2 l-21 -34 -67 4 c-100 8 -152 41 -279 178 -167 181 -235 244 -300 279
-75 39 -154 55 -220 43 -59 -11 -61 -8 -61 79 0 73 17 116 60 153 l33 28 26
-53 c14 -30 55 -84 90 -122z m884 -115 c10 -50 69 -124 133 -167 34 -22 115
-68 180 -102 210 -111 338 -229 412 -383 31 -65 37 -86 40 -165 5 -119 -19
-187 -92 -261 -73 -72 -142 -98 -266 -98 -158 -1 -275 52 -408 185 -117 117
-172 286 -137 420 28 110 66 150 117 125 34 -17 35 -63 2 -132 -22 -48 -26
-65 -21 -115 8 -88 46 -161 126 -240 156 -152 351 -192 479 -98 145 106 130
301 -36 480 -64 70 -150 128 -292 199 -186 93 -278 174 -315 280 -21 59 -20
63 23 82 50 22 49 22 55 -10z m11165 -13 c26 -10 26 -6 7 -58 -37 -105 -128
-188 -310 -278 -215 -108 -329 -206 -396 -340 -28 -59 -33 -79 -34 -143 0 -64
4 -82 27 -122 105 -178 356 -168 549 21 80 79 118 152 126 240 5 50 1 67 -21
115 -33 69 -32 115 3 132 35 18 62 3 88 -47 47 -92 50 -201 9 -319 -47 -137
-208 -288 -363 -341 -95 -33 -233 -32 -318 1 -128 50 -205 168 -205 316 0 130
54 245 175 369 83 85 144 127 325 224 164 89 208 123 246 195 31 59 29 58 92
35z m-12008 -44 c37 -19 84 -58 145 -123 222 -235 271 -281 335 -311 35 -17
87 -33 116 -37 l54 -6 -6 -57 c-4 -31 -9 -59 -13 -63 -12 -13 -106 12 -177 47
-88 43 -179 126 -325 295 -113 133 -160 171 -226 189 -51 14 -92 6 -171 -32
-160 -77 -232 -242 -163 -374 79 -154 369 -278 572 -246 85 14 119 -6 105 -62
-10 -41 -53 -55 -167 -55 -130 0 -207 18 -336 81 -312 150 -400 427 -203 642
122 133 322 182 460 112z m13021 19 c136 -40 236 -122 291 -241 67 -143 29
-295 -107 -422 -48 -44 -94 -75 -168 -110 -129 -63 -206 -81 -336 -81 -114 0
-157 14 -167 55 -14 56 20 76 105 62 107 -17 272 16 385 76 74 39 161 118 187
168 68 135 -3 299 -163 376 -79 38 -120 46 -171 32 -66 -18 -113 -56 -226
-189 -146 -169 -237 -252 -325 -295 -71 -35 -165 -60 -177 -47 -4 4 -9 32 -13
63 l-6 57 54 6 c29 4 81 20 116 37 64 30 116 78 330 306 89 94 141 133 210
154 43 13 124 10 181 -7z m-13086 -159 c24 -14 92 -82 159 -159 132 -153 205
-223 290 -278 65 -42 168 -78 222 -78 19 0 36 -6 38 -12 2 -7 9 -35 15 -63 19
-82 60 -153 130 -227 81 -87 169 -151 247 -179 32 -13 65 -27 72 -32 15 -12
16 -146 1 -202 -16 -59 -83 -119 -149 -135 -64 -15 -163 -8 -251 20 -52 16
-68 26 -83 52 -27 47 -110 148 -215 262 -97 104 -131 154 -162 237 l-20 51 41
44 c51 55 54 98 11 146 l-30 33 -123 -3 c-98 -2 -139 1 -201 17 -303 78 -418
282 -250 443 46 45 136 88 182 88 19 0 53 -11 76 -25z m13080 -4 c226 -108
216 -334 -20 -450 -107 -53 -202 -72 -342 -69 -115 3 -122 2 -146 -20 -48 -45
-42 -109 16 -170 l31 -32 -19 -57 c-24 -69 -88 -157 -217 -298 -53 -58 -114
-132 -135 -165 -36 -56 -42 -61 -102 -80 -152 -48 -274 -36 -346 34 -50 48
-65 91 -65 191 0 102 4 111 67 140 80 36 170 103 241 179 77 82 112 150 136
259 6 24 11 27 50 27 63 0 163 34 232 78 85 55 161 128 288 276 164 192 212
214 331 157z m356 -507 c61 -30 123 -103 146 -167 22 -67 22 -192 -1 -272
l-17 -60 -74 -17 c-41 -9 -137 -46 -214 -82 -154 -71 -245 -103 -325 -112 -46
-6 -57 -3 -101 25 -70 44 -125 43 -171 -3 -52 -52 -48 -92 16 -161 44 -46 50
-57 44 -81 -37 -156 -226 -276 -319 -202 -33 26 -64 91 -65 134 0 59 55 146
152 240 204 197 208 202 249 287 21 45 47 120 57 167 l18 84 68 13 c152 28
292 94 388 183 69 64 69 64 149 24z m-13856 -15 c94 -98 268 -185 434 -218
l83 -17 19 -74 c39 -155 72 -205 243 -373 170 -166 206 -221 206 -307 0 -52
-31 -113 -73 -144 -56 -41 -159 -18 -241 55 -40 35 -96 139 -96 179 0 17 14
40 44 69 52 51 62 80 41 120 -33 65 -84 76 -159 36 -44 -24 -52 -25 -114 -15
-106 17 -167 37 -315 106 -76 36 -174 74 -218 86 l-79 21 -17 56 c-22 76 -22
202 0 268 22 64 85 136 146 168 25 13 48 24 51 25 3 0 24 -19 45 -41z m690
-271 c27 -83 76 -155 185 -273 128 -138 185 -213 223 -293 76 -161 27 -339
-114 -417 -49 -27 -63 -30 -144 -30 -77 0 -98 4 -148 27 -78 37 -170 126 -207
202 -35 71 -54 164 -45 215 10 58 50 116 92 136 33 16 40 16 63 4 42 -24 37
-54 -15 -110 -45 -48 -47 -53 -43 -98 10 -100 79 -197 180 -251 52 -29 74 -35
125 -35 71 0 100 16 148 84 27 39 30 50 30 119 0 116 -20 148 -206 333 -166
165 -190 198 -228 323 -31 101 -30 104 32 109 28 2 53 4 54 5 1 1 9 -22 18
-50z m12495 22 c0 -29 -40 -151 -67 -204 -16 -32 -78 -102 -182 -205 -189
-187 -216 -230 -209 -342 3 -56 9 -76 33 -110 48 -68 77 -84 148 -84 142 1
291 140 305 285 4 46 2 50 -43 99 -52 56 -57 86 -15 110 56 31 140 -47 155
-144 8 -51 -17 -163 -52 -227 -36 -65 -130 -153 -200 -186 -50 -23 -71 -27
-148 -27 -81 0 -95 3 -144 30 -141 78 -190 256 -114 417 38 80 96 156 219 288
110 119 152 179 183 265 l22 60 54 -3 c45 -3 55 -7 55 -22z m-13346 -286 c32
-8 128 -47 213 -85 147 -67 275 -109 332 -109 31 0 58 -15 43 -23 -5 -4 -15
-26 -22 -50 l-12 -44 -76 14 c-80 15 -204 63 -354 139 -125 63 -190 77 -315
72 -96 -4 -109 -7 -187 -46 -189 -94 -296 -279 -296 -512 0 -113 16 -178 67
-280 49 -97 171 -222 258 -265 54 -27 70 -30 155 -30 105 0 157 17 229 74 121
96 136 319 27 427 -53 54 -110 71 -169 52 -36 -11 -45 -20 -67 -66 -28 -60
-58 -76 -90 -47 -36 32 -23 103 27 149 45 42 119 59 195 46 177 -32 265 -128
276 -302 10 -175 -72 -339 -206 -407 -81 -41 -221 -46 -347 -10 -73 20 -175
81 -245 146 -88 82 -155 183 -193 292 -27 76 -31 100 -31 201 -1 135 16 207
73 325 93 188 260 322 444 355 65 11 194 4 271 -16z m14417 -5 c218 -71 387
-275 435 -525 28 -151 10 -278 -62 -424 -39 -79 -62 -109 -133 -180 -123 -123
-216 -168 -385 -190 -266 -34 -451 157 -433 445 10 168 99 263 275 295 131 23
242 -45 242 -149 0 -62 -74 -82 -98 -26 -30 71 -38 80 -79 93 -59 19 -116 2
-169 -52 -79 -79 -98 -224 -43 -334 35 -70 71 -104 149 -141 47 -22 69 -26
150 -26 85 0 101 3 155 30 88 43 210 169 258 265 49 100 67 175 67 285 0 228
-109 414 -296 507 -77 38 -91 41 -182 46 -132 6 -180 -6 -357 -90 -172 -81
-260 -114 -331 -123 l-50 -7 -13 42 c-7 23 -15 48 -18 56 -4 10 3 14 24 14 60
0 185 41 335 109 158 71 205 87 293 102 73 12 193 2 266 -22z m-14463 -130
c26 -6 117 -44 202 -84 85 -40 173 -79 196 -88 32 -12 178 -47 197 -47 3 0 9
-26 16 -57 15 -76 60 -171 106 -222 l37 -40 -11 -67 c-5 -36 -17 -77 -26 -90
-35 -54 -101 -74 -184 -58 -32 7 -52 24 -128 107 -32 36 -51 48 -82 53 -23 4
-41 10 -41 14 0 19 -88 104 -131 126 -56 28 -149 54 -194 54 -53 0 -134 -29
-172 -63 -44 -38 -63 -82 -63 -141 0 -37 5 -48 31 -70 32 -28 76 -34 110 -15
11 5 31 35 44 65 l24 54 52 0 c46 0 55 -4 89 -38 74 -74 90 -214 35 -308 -49
-83 -177 -142 -283 -131 -164 17 -344 200 -397 403 -31 120 -15 277 41 392 32
65 122 164 181 199 99 57 240 78 351 52z m14411 -8 c86 -27 140 -61 204 -130
91 -99 137 -221 137 -366 0 -154 -52 -283 -163 -401 -114 -123 -236 -166 -362
-129 -78 22 -139 65 -172 123 -24 41 -28 57 -28 127 0 91 21 143 75 189 25 20
42 26 81 26 l50 0 24 -54 c13 -30 33 -60 44 -65 34 -19 78 -13 110 15 26 22
31 33 31 70 0 90 -56 160 -152 189 -65 19 -99 19 -171 0 -108 -28 -197 -89
-236 -163 -7 -14 -17 -18 -31 -15 -35 9 -78 -17 -109 -66 -51 -78 -71 -93
-143 -98 -103 -7 -151 35 -169 147 l-10 62 35 39 c48 53 92 143 107 220 7 35
14 65 15 67 1 2 33 10 71 17 91 19 133 35 305 117 81 38 169 76 195 83 72 20
191 18 262 -4z m-2889 -258 c493 -142 1105 -531 1404 -893 172 -207 218 -308
301 -662 66 -286 87 -403 106 -603 l11 -120 58 -95 c84 -139 117 -209 160
-339 46 -138 65 -245 85 -483 9 -98 24 -210 34 -250 63 -244 222 -552 423
-822 l79 -106 -7 -50 c-4 -27 -9 -50 -11 -50 -13 0 -129 111 -189 181 -138
161 -233 329 -304 535 -52 151 -84 310 -110 549 -43 393 -90 552 -219 745 -79
120 -70 114 -238 159 -331 89 -482 168 -697 362 -306 278 -474 590 -635 1182
-82 300 -221 583 -360 730 l-66 70 45 -8 c25 -4 83 -18 130 -32z m-5396 -843
c317 -23 599 -124 794 -284 91 -74 135 -130 126 -159 -6 -20 -42 -97 -49 -105
-2 -2 -36 21 -77 51 -130 97 -241 149 -407 193 -170 44 -310 57 -566 51 -252
-6 -349 -18 -755 -91 -565 -103 -731 -113 -1075 -65 -202 29 -296 53 -413 109
-96 46 -104 48 -99 27 16 -63 28 -211 22 -277 -8 -96 -50 -341 -75 -440 -55
-214 -140 -407 -376 -846 -203 -378 -299 -601 -363 -845 -100 -377 -73 -736
72 -966 l26 -40 -84 -42 c-302 -150 -526 -467 -661 -935 -51 -177 -88 -374
-134 -711 -83 -606 -127 -769 -296 -1108 -82 -163 -128 -232 -217 -324 l-69
-72 38 -6 c185 -33 254 -57 444 -156 166 -87 326 -192 445 -293 50 -43 252
-241 450 -441 358 -361 467 -458 656 -586 189 -127 401 -220 580 -254 100 -19
282 -19 369 -1 36 8 68 12 71 10 3 -2 9 -35 13 -73 13 -145 95 -340 203 -486
128 -172 276 -306 508 -460 176 -116 321 -195 635 -345 451 -215 647 -336 838
-516 l73 -69 -11 -105 c-18 -170 -10 -162 -88 -88 -141 135 -269 211 -807 480
-442 222 -583 299 -755 413 -303 201 -490 402 -616 660 -61 127 -92 234 -101
355 l-6 86 -51 -17 c-272 -92 -686 -1 -1032 227 -194 128 -334 252 -745 664
-398 399 -571 560 -673 625 -180 115 -521 250 -680 270 l-56 7 71 76 c150 161
343 499 394 692 41 156 81 375 135 745 94 644 167 938 300 1206 87 172 246
371 381 475 70 54 188 118 249 135 25 7 46 14 48 15 2 1 -12 23 -31 48 -114
149 -175 400 -164 675 13 323 122 649 392 1166 394 753 452 889 490 1150 19
127 26 433 13 537 l-8 56 68 -33 c140 -69 410 -140 626 -165 162 -19 365 3
969 104 355 60 599 92 757 99 36 2 83 4 105 5 22 1 103 -3 179 -8z m2431 -16
c83 -9 322 -45 532 -80 604 -101 807 -123 969 -104 216 25 486 97 627 165 l68
34 -8 -47 c-15 -85 -8 -428 10 -548 40 -260 97 -398 402 -979 93 -176 199
-385 236 -465 171 -371 249 -662 249 -930 0 -245 -59 -464 -165 -612 -19 -26
-35 -50 -35 -52 0 -2 15 -7 33 -10 17 -3 60 -19 95 -36 218 -103 429 -331 562
-605 127 -261 199 -553 285 -1155 63 -440 110 -686 156 -830 57 -176 251 -498
380 -635 l69 -73 -56 -7 c-159 -20 -500 -155 -680 -270 -102 -65 -276 -227
-674 -626 -410 -411 -550 -535 -744 -663 -346 -228 -760 -319 -1032 -227 l-51
17 -6 -86 c-9 -121 -40 -228 -101 -355 -126 -258 -315 -460 -616 -660 -174
-116 -318 -194 -755 -413 -536 -267 -657 -339 -795 -468 -91 -87 -82 -94 -100
76 l-11 105 73 69 c192 182 385 300 855 525 309 147 480 241 643 351 317 215
517 437 623 690 35 83 67 211 67 266 0 24 3 45 8 47 4 3 36 -1 72 -9 87 -18
269 -18 369 1 240 46 492 175 771 394 65 51 243 222 465 446 198 200 401 398
450 441 119 101 279 206 446 293 208 109 255 124 529 167 l45 7 -77 26 c-42
14 -86 35 -98 46 -57 51 -129 165 -216 338 -167 336 -204 483 -304 1222 -68
503 -184 862 -368 1140 -100 150 -280 309 -425 375 l-63 29 51 104 c79 160
100 261 100 477 -1 191 -12 272 -66 465 -65 232 -168 466 -368 835 -209 385
-301 591 -355 791 -31 114 -73 355 -82 464 -6 71 6 214 23 282 5 21 -3 19 -99
-27 -177 -84 -454 -134 -748 -133 -198 0 -324 14 -650 73 -514 92 -662 110
-919 110 -395 -1 -673 -76 -895 -244 -67 -50 -85 -60 -89 -47 -3 9 -15 39 -28
67 l-22 52 34 41 c81 102 248 212 424 280 265 104 553 128 980 85z m6142 -211
c225 -329 416 -830 479 -1260 22 -147 22 -401 0 -521 -43 -241 -117 -366 -441
-742 -199 -232 -204 -238 -256 -366 -146 -359 -199 -883 -143 -1432 47 -460
168 -908 328 -1208 l36 -68 -41 40 c-127 122 -245 365 -323 665 -181 695 -177
1448 10 2029 l45 139 -46 63 c-163 220 -267 631 -252 993 13 298 80 540 265
945 141 311 197 526 197 758 l0 144 41 -45 c22 -25 68 -85 101 -134z m-14566
87 c50 -14 122 -64 150 -105 13 -19 26 -35 29 -35 3 0 14 13 24 29 25 36 88
78 141 92 61 17 163 6 228 -24 75 -34 160 -116 194 -186 24 -49 28 -68 28
-156 0 -55 -3 -114 -7 -131 l-7 -30 64 -11 c35 -6 85 -22 111 -34 122 -61 215
-241 202 -393 -5 -64 -10 -71 -54 -79 l-30 -6 4 90 c3 68 0 100 -13 134 -30
80 -128 148 -281 194 -148 45 -172 59 -195 110 -11 25 -32 59 -47 74 -70 74
-214 109 -372 89 -150 -18 -240 -78 -313 -207 -36 -65 -37 -65 -117 -45 -93
24 -223 -15 -273 -82 -39 -52 -50 -102 -45 -197 l5 -86 -73 3 -73 4 -12 56
c-20 99 8 231 66 307 35 47 103 84 164 92 32 4 50 10 47 17 -67 155 -38 315
74 420 106 99 240 133 381 96z m7804 -2240 c1290 -2916 1203 -2716 1278 -2945
89 -269 121 -474 120 -770 -1 -327 -18 -451 -169 -1210 -131 -656 -131 -663
21 -916 84 -139 99 -182 93 -267 -10 -141 -97 -236 -255 -277 -49 -13 -188
-15 -930 -15 l-873 0 0 24 c0 13 -3 44 -6 70 l-7 46 885 0 c964 0 950 -1 1009
56 40 38 63 113 56 184 -5 60 -25 105 -106 239 -81 134 -95 179 -95 301 1 91
12 163 87 535 140 702 161 849 161 1175 0 398 -61 658 -269 1144 -71 168
-1844 4179 -1849 4183 -3 3 -1811 -4085 -1881 -4252 -178 -425 -239 -697 -239
-1070 0 -326 23 -495 161 -1180 119 -593 119 -626 -8 -836 -81 -134 -101 -179
-106 -239 -7 -71 16 -146 56 -184 59 -57 45 -56 1009 -56 l885 0 -7 -46 c-3
-26 -6 -57 -6 -70 l0 -24 -873 0 c-742 0 -881 2 -930 15 -158 41 -245 136
-255 277 -6 85 9 128 93 267 152 253 152 260 21 916 -151 759 -168 883 -169
1210 -1 382 61 663 240 1090 77 185 2006 4545 2009 4542 1 -1 383 -864 849
-1917z m-7359 1815 c53 -23 91 -64 114 -123 20 -51 61 -77 182 -117 273 -91
322 -152 290 -364 l-7 -45 -93 -23 c-119 -29 -205 -71 -291 -144 l-69 -58 -12
30 c-22 52 -68 107 -126 149 -33 25 -62 56 -70 76 -15 36 -17 158 -5 257 4 36
3 57 -3 57 -5 0 -52 -23 -103 -52 -163 -90 -261 -198 -311 -342 -13 -39 -26
-73 -27 -75 -2 -1 -14 7 -27 19 -63 61 -213 138 -305 156 -44 9 -68 70 -68
174 0 89 22 133 83 168 53 29 147 30 202 2 22 -11 45 -20 53 -20 20 0 50 37
86 106 70 133 141 183 275 193 113 9 173 3 232 -24z m4785 -460 c-111 -123
-221 -315 -280 -492 -107 -319 -124 -695 -67 -1508 39 -554 34 -696 -35 -913
-109 -340 -308 -571 -744 -862 -264 -176 -393 -293 -500 -455 -67 -100 -110
-194 -130 -279 -19 -80 -22 -343 -5 -406 27 -102 89 -172 198 -223 60 -28 69
-29 158 -25 52 3 94 3 94 1 0 -14 -80 -33 -143 -33 -102 0 -165 21 -226 76
-104 94 -145 262 -121 495 24 226 69 349 180 497 75 100 175 193 394 370 93
75 195 160 227 189 133 124 225 417 194 619 l-7 49 -24 -90 c-43 -161 -132
-316 -261 -455 -32 -35 -121 -114 -198 -175 -330 -265 -483 -436 -564 -630
-35 -83 -78 -282 -87 -406 -20 -252 98 -539 255 -618 108 -56 261 -64 376 -20
81 30 164 112 193 191 19 50 41 188 31 188 -2 0 -26 -7 -53 -15 -99 -30 -186
-10 -264 60 -73 66 -104 143 -110 271 -14 316 152 538 404 539 71 0 85 -3 122
-28 168 -111 119 -386 -69 -387 -91 0 -122 57 -94 176 8 37 14 69 12 71 -7 7
-99 -112 -125 -162 -22 -42 -26 -64 -27 -130 0 -124 23 -164 193 -332 151
-150 187 -205 212 -328 19 -92 17 -249 -4 -319 -52 -173 -178 -339 -358 -471
-325 -240 -903 -296 -1200 -115 -36 22 -34 22 57 39 98 18 207 79 342 193 67
57 122 106 122 111 1 4 -37 7 -83 7 -108 0 -290 24 -386 51 -140 39 -276 129
-352 233 -35 49 -35 59 0 44 36 -15 525 -20 570 -7 l32 11 -47 61 c-97 125
-201 219 -303 272 -158 83 -269 212 -314 364 -9 30 -16 72 -16 94 l0 39 39
-35 c50 -45 107 -78 211 -121 61 -26 125 -66 225 -141 77 -58 143 -105 146
-105 9 0 -26 156 -52 234 -34 99 -72 155 -180 261 -79 78 -109 115 -134 168
-46 93 -67 220 -63 372 l3 120 36 -75 c45 -96 84 -140 162 -184 87 -49 140
-97 184 -168 l38 -61 8 39 c11 52 2 194 -18 269 -15 56 -34 97 -116 254 -30
57 -34 75 -37 160 -3 62 2 128 12 186 21 113 56 245 65 245 4 0 17 -20 29 -44
11 -25 52 -96 90 -159 78 -129 131 -273 157 -427 9 -52 18 -96 19 -98 8 -7 67
159 81 223 17 82 19 242 5 335 -6 36 -31 148 -55 250 -61 257 -70 330 -55 431
11 79 48 208 73 256 13 23 14 19 31 -59 31 -144 122 -340 216 -463 94 -122
130 -201 130 -289 l1 -41 35 40 c52 59 68 125 61 264 -7 149 -32 244 -106 401
-77 161 -95 244 -94 415 1 132 22 246 57 312 l14 28 7 -30 c25 -111 85 -248
181 -415 52 -90 148 -319 170 -404 11 -43 14 -81 9 -128 -3 -38 -4 -68 -2 -68
9 0 87 136 103 180 22 62 29 213 14 308 -6 42 -30 154 -51 247 -81 346 -99
557 -63 733 40 196 166 404 314 522 l40 32 -45 -128 c-113 -318 -115 -375 -27
-717 82 -320 96 -414 89 -597 -4 -92 -13 -178 -26 -234 -12 -49 -19 -91 -17
-93 1 -2 33 38 69 89 142 199 197 418 197 792 1 242 18 558 40 706 52 354 173
614 385 824 75 74 253 216 272 216 3 0 -18 -25 -46 -55z m3518 -25 c186 -138
342 -333 427 -534 52 -121 97 -295 119 -456 17 -127 35 -469 35 -686 0 -363
56 -585 197 -782 36 -51 67 -91 69 -89 2 1 -8 57 -21 122 -49 237 -33 418 71
820 84 321 81 384 -31 699 l-45 128 40 -32 c101 -80 221 -245 269 -370 44
-114 61 -213 61 -359 0 -150 -18 -267 -85 -551 -56 -236 -68 -384 -41 -490 16
-60 64 -159 101 -205 14 -19 15 -15 9 50 -4 49 -1 88 10 131 22 85 118 314
170 404 96 167 156 304 181 415 l7 30 14 -28 c36 -69 56 -180 56 -317 1 -174
-17 -249 -93 -410 -32 -69 -68 -161 -80 -205 -26 -100 -36 -285 -20 -352 12
-46 68 -143 84 -143 4 0 7 17 7 38 0 85 36 165 130 288 93 121 175 296 214
458 l22 89 22 -54 c28 -65 58 -184 67 -260 9 -72 -6 -170 -60 -399 -24 -102
-49 -214 -55 -250 -15 -96 -12 -250 6 -338 14 -67 72 -227 80 -220 1 2 10 46
19 98 28 161 78 293 171 452 46 78 87 150 90 160 10 34 22 18 43 -59 36 -136
53 -262 49 -359 -3 -80 -8 -99 -37 -155 -82 -156 -101 -198 -116 -254 -20 -75
-29 -217 -18 -269 l8 -39 38 61 c44 71 97 119 184 168 78 44 117 88 162 184
l36 75 3 -120 c4 -153 -17 -279 -63 -372 -25 -52 -56 -91 -134 -168 -108 -106
-147 -162 -180 -261 -26 -78 -61 -234 -52 -234 3 0 69 47 146 105 100 75 164
115 225 141 104 43 161 76 211 121 l39 35 0 -39 c0 -22 -7 -64 -16 -94 -45
-152 -156 -281 -314 -364 -102 -53 -206 -147 -303 -272 l-47 -61 32 -11 c45
-13 534 -8 571 7 34 15 34 5 -1 -44 -76 -104 -212 -194 -352 -233 -96 -27
-278 -51 -386 -51 -46 0 -84 -3 -83 -7 0 -5 55 -54 122 -111 135 -114 244
-175 342 -193 92 -17 93 -17 54 -41 -96 -59 -301 -108 -454 -108 -174 0 -415
51 -560 119 -267 125 -471 342 -541 577 -21 70 -23 227 -4 319 25 123 61 178
212 328 170 167 193 208 193 332 0 67 -5 88 -27 130 -25 49 -117 169 -124 162
-2 -2 3 -35 11 -73 26 -121 -3 -174 -94 -174 -101 1 -174 83 -173 195 1 71 42
148 101 190 39 28 50 30 124 30 106 -1 177 -28 254 -98 104 -96 159 -256 151
-441 -6 -128 -37 -205 -110 -271 -78 -70 -165 -90 -264 -60 -27 8 -51 15 -53
15 -10 0 12 -138 31 -188 61 -164 262 -255 461 -208 130 31 205 89 270 213 77
147 108 318 88 490 -48 410 -172 604 -616 963 -93 75 -196 165 -228 200 -129
139 -218 294 -261 455 -23 89 -24 90 -31 51 -4 -21 -5 -86 -2 -145 6 -123 37
-233 99 -353 47 -91 80 -123 329 -325 222 -179 294 -246 374 -346 120 -150
170 -283 195 -516 24 -233 -17 -401 -121 -495 -61 -55 -124 -76 -226 -76 -63
0 -143 19 -143 33 0 2 42 2 94 -1 89 -4 98 -3 158 25 109 51 171 121 198 222
17 63 14 328 -5 407 -43 188 -203 416 -399 569 -45 35 -163 118 -261 186 -231
156 -281 197 -397 317 -181 189 -298 405 -354 657 -29 131 -29 346 2 780 35
503 40 977 11 1168 -54 358 -173 630 -370 845 -50 54 -29 45 82 -38z m-993
-1749 c434 -981 791 -1788 793 -1793 2 -5 -25 11 -59 36 -76 56 -140 76 -243
76 -66 0 -89 5 -133 26 -63 31 -145 43 -220 33 -47 -6 -63 -4 -107 17 -72 33
-150 47 -226 41 -55 -4 -71 -1 -123 23 -65 31 -185 56 -222 46 -15 -4 -45 3
-77 18 -30 13 -69 27 -86 30 -18 4 -35 11 -38 16 -11 18 -22 283 -14 322 5 21
33 89 61 151 48 105 52 117 52 193 1 87 6 74 -109 293 -48 93 -53 137 -26 287
39 224 37 333 -8 465 l-17 53 4 -117 c5 -136 -7 -199 -76 -382 -57 -153 -58
-200 -7 -370 20 -66 39 -147 42 -181 7 -76 -10 -118 -97 -234 -91 -123 -94
-132 -86 -280 3 -69 12 -153 19 -187 13 -59 13 -62 -8 -71 -12 -6 -33 -8 -47
-5 -43 8 -162 -16 -226 -47 -52 -24 -68 -27 -123 -23 -76 6 -154 -8 -226 -41
-44 -21 -60 -23 -107 -17 -75 10 -157 -2 -220 -33 -44 -21 -67 -26 -133 -26
-104 0 -167 -20 -244 -76 -34 -25 -59 -40 -56 -33 3 8 355 804 782 1769 427
965 783 1770 791 1789 8 20 18 31 23 25 4 -5 363 -812 797 -1793z m4289 1577
c258 -102 616 -349 871 -603 251 -250 411 -494 479 -729 34 -121 37 -160 39
-646 l1 -425 43 -124 c57 -168 139 -331 273 -546 62 -98 134 -223 160 -276 90
-179 149 -390 184 -652 14 -109 19 -229 8 -182 -3 11 -25 89 -50 174 -81 283
-158 453 -371 826 -69 121 -150 274 -180 339 -49 108 -124 319 -151 421 l-11
41 -105 16 c-248 40 -466 147 -626 309 -262 264 -405 659 -449 1239 -28 374
-112 657 -248 839 l-23 30 53 -16 c29 -8 75 -24 103 -35z m3070 -2138 c219
-333 394 -814 451 -1240 22 -168 22 -424 -1 -555 -45 -259 -182 -538 -414
-846 -150 -197 -167 -235 -331 -729 -65 -195 -132 -393 -150 -440 l-33 -84
-34 107 -34 107 45 102 c79 181 176 438 241 633 88 265 85 245 33 308 -125
147 -229 350 -311 604 -58 178 -87 340 -87 484 0 304 57 519 243 914 150 319
217 620 184 830 l-7 50 70 -74 c39 -41 100 -118 135 -171z m-8145 -35 c25 -97
31 -135 28 -200 -3 -72 -8 -91 -55 -190 -29 -60 -55 -128 -59 -151 -8 -55 8
-130 71 -319 89 -271 91 -295 30 -480 -50 -150 -47 -193 26 -375 51 -127 54
-140 54 -222 0 -87 0 -87 -59 -200 -54 -103 -59 -118 -58 -171 1 -32 13 -104
28 -160 31 -120 34 -222 10 -317 -18 -68 -91 -259 -106 -274 -7 -7 -150 10
-150 19 0 1 18 42 41 90 99 211 119 339 80 512 -12 51 -21 121 -21 155 0 57 5
70 56 160 102 178 105 222 33 428 -69 193 -70 240 -10 393 23 60 44 128 48
152 8 59 -9 146 -63 321 -34 113 -47 172 -51 242 l-6 94 64 126 c61 119 64
130 67 207 3 57 -2 106 -17 168 -20 86 -26 125 -16 116 2 -3 18 -59 35 -124z
m5337 -81 c301 -87 724 -355 1008 -639 362 -362 516 -718 475 -1095 -20 -189
-49 -285 -163 -535 -202 -445 -271 -687 -298 -1052 -18 -241 -2 -423 76 -852
8 -47 18 -115 21 -152 l7 -67 -43 -31 c-24 -17 -55 -31 -70 -31 -26 0 -28 3
-44 84 -31 158 -40 316 -40 766 -1 386 1 461 18 565 32 211 82 378 172 581 3
5 -18 16 -47 23 -159 41 -381 200 -537 384 -268 317 -371 632 -412 1262 -22
333 -116 648 -233 781 l-41 46 35 -7 c19 -4 71 -18 116 -31z m-11919 -619 c47
-20 78 -50 105 -100 19 -34 22 -57 22 -148 0 -92 2 -106 15 -101 190 85 286
45 368 -149 22 -52 26 -78 26 -162 1 -88 -2 -106 -24 -149 -30 -60 -89 -111
-152 -133 l-47 -17 34 -38 c79 -87 106 -203 66 -292 -21 -49 -80 -130 -88
-122 -2 2 2 17 11 33 27 53 39 154 26 220 -17 87 -77 200 -135 258 -41 42 -69
59 -158 94 -105 42 -109 45 -132 92 -58 113 -134 163 -250 163 -82 1 -155 -21
-270 -79 l-80 -40 -45 22 c-85 44 -202 24 -284 -48 -49 -43 -96 -127 -96 -171
0 -22 -13 -37 -69 -79 -120 -89 -163 -169 -164 -306 l0 -83 -28 0 c-40 0 -51
28 -57 143 -6 114 8 187 48 267 48 94 138 159 223 160 20 0 37 3 37 7 0 3 -12
36 -27 72 -24 58 -27 80 -28 176 0 94 3 116 22 150 47 89 154 155 247 155 78
-1 183 -42 257 -101 l38 -30 25 48 c33 67 107 162 153 199 45 37 112 72 168
90 58 18 197 17 243 -1z m-234 -606 c60 -15 111 -60 146 -129 30 -60 57 -79
155 -110 122 -39 186 -94 243 -209 33 -66 37 -83 37 -150 0 -63 -5 -86 -29
-135 -28 -57 -115 -156 -167 -190 -26 -16 -30 -16 -90 5 -85 30 -265 38 -359
16 -35 -9 -68 -13 -72 -11 -5 3 -8 16 -8 29 0 32 -12 59 -84 190 -59 105 -61
112 -61 181 0 63 4 80 38 143 20 40 37 75 37 78 0 3 -39 3 -87 -1 -182 -13
-284 -103 -328 -288 -8 -35 -15 -92 -15 -127 0 -55 -2 -62 -17 -57 -38 15
-171 27 -224 21 -32 -4 -76 -4 -99 0 -47 8 -55 25 -54 125 1 112 37 165 184
273 38 28 46 40 57 87 16 71 58 129 118 162 76 42 168 36 221 -13 21 -19 21
-19 135 35 106 52 202 83 257 85 13 1 43 -4 66 -10z m4992 -451 c4 -13 8 -66
8 -118 1 -80 5 -101 24 -133 12 -21 20 -43 16 -48 -11 -19 -5 -138 10 -173 8
-20 26 -51 40 -69 17 -21 26 -47 26 -69 0 -19 7 -59 16 -89 13 -43 29 -66 79
-114 40 -39 65 -72 69 -92 4 -18 21 -51 38 -74 l30 -41 -26 -57 c-33 -74 -50
-153 -41 -199 3 -20 23 -86 43 -147 34 -101 37 -119 36 -225 0 -103 -3 -125
-31 -210 -30 -88 -82 -177 -146 -247 l-20 -22 -29 24 c-17 15 -42 25 -60 25
l-30 0 31 -26 c38 -32 39 -59 4 -78 -16 -8 -48 -33 -72 -55 -27 -25 -51 -39
-61 -36 -12 4 -30 77 -78 327 -78 404 -99 546 -114 774 -18 282 6 530 78 791
36 134 134 403 145 403 4 0 11 -10 15 -22z m3693 -119 c139 -373 187 -683 163
-1053 -15 -229 -36 -371 -114 -774 -48 -248 -66 -323 -79 -327 -9 -3 -33 11
-60 36 -24 22 -56 47 -71 55 -36 19 -35 46 3 78 l31 26 -27 0 c-30 0 -66 -17
-78 -37 -12 -19 -22 -10 -88 80 -45 61 -67 105 -91 177 -29 85 -32 107 -32
210 -1 106 2 124 36 225 20 61 40 127 43 147 9 46 -8 125 -41 199 l-26 57 30
41 c17 23 34 56 38 74 4 20 29 53 69 92 50 48 66 71 79 114 9 30 16 70 16 89
0 22 9 48 26 69 43 57 56 100 53 182 -2 60 1 84 17 111 14 27 19 56 20 130 1
94 8 140 23 140 4 0 31 -63 60 -141z m-9559 -636 c33 -11 72 -34 104 -64 51
-46 54 -48 166 -67 162 -28 223 -53 291 -122 66 -66 104 -134 125 -228 l15
-68 57 -11 c129 -25 253 -95 317 -179 l30 -39 -35 23 c-66 44 -216 111 -285
128 -39 9 -108 16 -155 17 -106 0 -175 -25 -249 -88 -29 -25 -61 -45 -71 -45
-10 0 -55 7 -101 16 -111 21 -213 21 -267 -1 -24 -10 -61 -38 -87 -67 -96
-107 -109 -229 -41 -391 20 -48 34 -92 31 -97 -4 -6 -23 -19 -43 -29 -77 -40
-139 -133 -184 -274 l-31 -98 -48 47 c-74 73 -102 133 -107 230 -4 72 -1 89
21 137 14 30 44 74 67 96 l42 41 -51 75 c-110 158 -130 250 -79 350 31 59 90
123 150 162 24 15 44 28 45 28 2 1 -7 26 -19 56 -30 76 -30 202 0 280 63 159
227 235 392 182z m6595 -272 c3 -5 -4 -33 -16 -63 -34 -84 -29 -161 16 -293
36 -103 39 -118 39 -230 1 -96 -4 -140 -24 -218 -21 -85 -27 -98 -48 -104 -24
-6 -172 2 -257 14 l-44 6 24 31 c13 18 36 58 51 91 35 75 43 206 20 310 -45
207 -45 208 -35 255 15 71 77 172 119 192 37 19 145 25 155 9z m389 -1 l25 -9
-21 -49 c-20 -48 -23 -50 -69 -55 -58 -7 -114 -35 -153 -75 -31 -33 -28 -52 8
-52 23 0 138 -37 188 -60 21 -10 32 -28 49 -77 l21 -63 -61 -69 c-34 -38 -61
-71 -61 -75 0 -3 29 -6 65 -6 46 0 67 -4 71 -13 3 -8 -4 -79 -15 -158 -12 -79
-23 -162 -26 -184 l-5 -40 19 25 c62 78 151 274 151 331 0 20 3 21 56 16 31
-3 57 -7 59 -9 7 -9 -27 -414 -41 -478 -51 -235 -153 -399 -292 -469 -31 -16
-93 -37 -137 -46 -44 -10 -107 -28 -140 -40 -43 -16 -94 -24 -178 -29 -139 -8
-250 -37 -369 -97 -95 -48 -239 -135 -305 -186 l-46 -35 21 34 c12 19 34 66
49 104 37 96 37 236 0 419 -15 72 -27 133 -27 136 0 4 14 4 32 0 26 -5 42 -21
82 -80 47 -69 51 -73 80 -67 37 7 66 39 66 72 0 13 5 24 11 24 12 0 231 -79
237 -85 2 -2 -1 -27 -7 -55 -9 -42 -8 -62 5 -107 16 -54 17 -55 47 -49 17 3
32 8 34 10 2 2 -5 26 -16 53 -17 44 -18 55 -7 93 7 23 20 46 29 52 15 8 17 3
17 -42 0 -44 5 -58 41 -105 41 -54 53 -60 96 -49 22 6 21 9 -27 64 -44 50 -50
63 -50 101 0 24 4 49 8 54 4 6 59 36 123 67 l115 57 60 -24 c32 -14 71 -25 85
-25 l25 0 -13 -102 c-7 -56 -11 -104 -8 -106 2 -3 15 2 27 10 18 12 29 40 51
130 39 158 51 168 107 88 19 -27 38 -50 42 -50 4 0 14 10 22 21 14 20 11 29
-36 122 -38 74 -60 105 -84 119 -22 13 -35 30 -40 51 -3 18 -14 48 -24 67 -18
35 -18 36 6 63 46 53 26 125 -71 256 -81 111 -101 180 -74 256 10 26 9 40 -6
78 -10 26 -21 47 -25 47 -10 0 -20 -37 -21 -80 -1 -58 -38 105 -39 172 0 76
49 175 100 200 38 20 124 24 164 8z m1546 -8 c51 -25 100 -124 100 -200 -1
-68 -38 -230 -39 -170 -1 20 -6 49 -12 65 l-11 28 -20 -54 c-17 -45 -19 -60
-9 -86 28 -78 7 -144 -92 -286 -28 -41 -56 -83 -62 -92 -8 -14 -15 -9 -45 35
l-35 51 1 121 c0 103 4 133 27 202 22 65 32 83 54 94 51 23 166 60 189 60 36
0 39 19 8 52 -39 40 -95 68 -153 75 -46 5 -49 7 -69 55 l-21 49 22 9 c38 15
130 11 167 -8z m397 -8 c15 -12 45 -54 66 -95 47 -91 50 -144 16 -269 -18 -66
-23 -112 -24 -205 0 -111 2 -125 28 -180 15 -32 39 -73 52 -91 l24 -31 -44 -6
c-85 -12 -233 -20 -257 -14 -21 6 -27 19 -48 104 -20 78 -25 123 -25 218 1
113 3 127 39 230 46 132 51 210 17 293 -12 30 -18 58 -15 64 12 18 140 5 171
-18z m6032 -284 c336 -491 522 -1316 415 -1835 -95 -459 -560 -1065 -1159
-1511 -200 -148 -370 -249 -604 -358 -141 -65 -499 -208 -512 -204 -4 2 17 42
47 89 l54 87 91 31 c296 103 619 275 859 455 198 149 385 356 473 523 l38 72
-50 64 c-172 219 -284 594 -285 957 -1 335 56 536 274 968 147 292 205 496
205 721 l0 133 48 -53 c27 -30 74 -92 106 -139z m-14159 -91 c141 -38 314
-147 354 -221 l18 -34 -37 -74 c-21 -41 -74 -130 -117 -197 -91 -141 -90 -140
-201 -100 -79 29 -133 60 -217 126 l-65 50 -16 -37 c-48 -113 -69 -288 -46
-393 7 -34 6 -37 -24 -49 -62 -26 -113 -133 -154 -320 -9 -41 -25 -114 -36
-162 l-20 -87 -82 -55 c-45 -30 -103 -60 -129 -67 -143 -34 -296 109 -359 336
-18 66 -20 95 -15 164 9 121 33 215 77 307 38 81 63 109 148 166 57 39 59 60
16 165 -47 113 -56 200 -28 264 25 57 74 113 113 129 33 14 141 10 265 -10 98
-16 124 -10 178 39 72 66 108 79 222 80 53 1 106 -6 155 -20z m6747 1 c241
-39 550 -195 703 -354 l45 -47 -249 85 c-137 48 -261 86 -277 86 -20 0 -34 -8
-46 -27 -21 -32 -23 -88 -24 -587 -1 -358 -7 -410 -55 -474 -59 -77 -146 -113
-274 -115 -100 -1 -190 70 -190 150 0 45 14 69 50 88 42 22 90 19 143 -10 l47
-24 16 24 c30 45 28 94 -5 190 -30 88 -31 91 -19 171 12 86 12 88 -27 194 -28
75 -17 150 38 264 83 171 68 191 -158 227 -66 10 -139 19 -162 19 -24 0 -43 4
-43 9 0 16 73 73 119 94 100 45 235 58 368 37z m-767 -106 c0 -80 13 -112 88
-217 74 -103 87 -137 67 -183 -8 -19 -17 -34 -20 -34 -4 0 -21 10 -38 23 -28
19 -44 22 -129 22 l-97 0 20 30 c77 117 103 207 97 336 -3 54 -1 96 4 93 4 -3
8 -34 8 -70z m1802 -22 c-6 -131 20 -220 98 -338 l21 -32 -85 5 c-74 5 -90 3
-127 -16 -23 -12 -42 -21 -43 -19 -40 57 -43 65 -35 91 4 16 35 66 69 112 76
106 90 139 90 218 0 53 5 77 15 77 1 0 0 -44 -3 -98z m-402 -304 c79 -31 84
-34 122 -95 22 -35 42 -63 44 -63 2 0 1 20 -3 45 -5 37 -3 45 10 45 9 0 18 -8
22 -19 3 -10 14 -26 25 -36 19 -17 19 -18 1 -54 -10 -20 -22 -50 -25 -68 -5
-21 -18 -38 -40 -51 -25 -15 -46 -45 -84 -120 -47 -92 -50 -101 -36 -121 8
-11 18 -21 22 -21 4 0 23 23 42 50 56 80 67 71 108 -93 17 -65 32 -120 34
-122 10 -8 48 -15 48 -8 -1 4 -6 51 -13 104 l-13 97 38 5 c21 3 58 15 83 27
l45 22 117 -59 c65 -32 120 -59 122 -60 2 -2 6 -25 9 -52 4 -49 3 -52 -47
-110 -48 -56 -50 -59 -28 -65 43 -11 55 -5 96 49 36 47 41 61 41 105 0 45 2
50 17 42 9 -6 22 -29 29 -52 11 -38 10 -49 -7 -93 -11 -27 -18 -51 -16 -53 2
-2 17 -6 33 -10 29 -5 30 -4 47 49 14 46 15 63 6 107 -6 28 -9 53 -7 55 6 6
225 85 237 85 6 0 11 -11 11 -24 0 -33 29 -65 66 -72 29 -6 33 -2 80 67 40 59
56 75 82 80 18 4 32 4 32 0 0 -3 -11 -62 -25 -131 -49 -248 -44 -346 29 -491
l32 -66 -43 33 c-71 54 -223 145 -318 190 -123 59 -216 82 -354 90 -82 5 -134
13 -176 29 -33 12 -96 30 -140 40 -44 9 -106 30 -137 46 -179 90 -294 332
-316 662 -6 89 -5 117 5 117 6 0 49 -14 93 -32z m5169 -633 c178 -281 295
-829 278 -1300 -12 -318 -65 -561 -167 -765 -49 -98 -520 -824 -642 -988 -238
-323 -443 -501 -676 -589 -72 -27 -368 -113 -389 -113 -21 0 -16 14 26 66 39
49 40 50 131 67 266 50 479 207 610 450 67 124 101 241 120 410 l11 98 -30 47
c-111 174 -175 389 -187 632 -18 350 137 724 496 1200 114 150 166 231 225
350 90 180 145 354 145 460 0 22 2 40 4 40 2 0 23 -29 45 -65z m838 -920 c-7
-378 -41 -603 -134 -869 -32 -93 -141 -322 -149 -314 -2 2 3 26 12 53 24 81
81 381 98 515 28 224 36 380 36 645 l-1 260 34 22 c36 23 86 77 88 96 1 7 6
-19 11 -58 5 -38 7 -196 5 -350z m-6473 263 c3 -13 17 -144 31 -293 14 -148
28 -285 31 -302 l5 -33 -106 0 -106 0 5 33 c3 17 17 154 31 302 14 149 28 280
31 293 3 18 11 22 39 22 28 0 36 -4 39 -22z m131 -690 c15 -85 65 -434 65
-453 0 -16 -11 -26 -42 -38 l-42 -17 -72 60 c-40 33 -75 60 -79 60 -4 0 -39
-27 -79 -60 l-72 -60 -42 17 c-31 12 -42 22 -42 38 0 19 50 368 65 453 l6 32
164 0 164 0 6 -32z m-84 -490 c31 -27 61 -48 66 -48 5 0 38 11 72 26 35 14 65
23 68 20 3 -3 -3 -33 -14 -68 l-19 -63 -259 0 -259 0 -19 63 c-11 35 -17 65
-14 68 3 3 33 -6 68 -20 34 -15 66 -26 71 -26 5 0 41 27 80 60 60 50 74 58 87
48 9 -7 41 -34 72 -60z m169 -208 l0 -40 -255 0 -255 0 0 40 0 40 255 0 255 0
0 -40z m-280 -1219 l0 -1129 -145 -116 c-80 -64 -152 -119 -160 -122 -8 -3
-35 2 -60 11 -33 13 -45 23 -45 38 0 26 239 2371 246 2415 l5 32 79 0 80 0 0
-1129z m214 1097 c7 -44 246 -2389 246 -2415 0 -15 -12 -25 -45 -38 -25 -9
-52 -14 -60 -11 -8 3 -80 58 -160 122 l-145 116 0 1129 0 1129 80 0 79 0 5
-32z m7166 -205 c37 -338 -98 -801 -338 -1159 -206 -306 -467 -529 -755 -644
-194 -77 -348 -96 -656 -79 -287 15 -739 0 -920 -31 -700 -121 -1306 -528
-1838 -1235 -105 -140 -140 -182 -111 -135 367 601 578 868 836 1063 229 172
351 219 872 337 271 61 466 112 570 148 53 18 57 22 103 103 106 185 332 506
531 753 150 186 277 244 903 406 229 59 329 90 389 119 140 69 276 214 356
379 22 46 42 82 43 80 2 -2 9 -49 15 -105z m-13312 -18 c1 -1 -3 -35 -9 -76
l-11 -74 -60 3 c-87 5 -124 -5 -170 -46 -47 -43 -83 -112 -99 -194 -7 -34 -20
-65 -33 -77 -12 -11 -68 -36 -126 -56 -132 -46 -177 -73 -239 -141 -66 -71
-94 -145 -95 -244 0 -96 22 -162 82 -242 l46 -61 1 -91 c1 -115 23 -165 114
-257 74 -73 153 -117 232 -126 27 -3 49 -8 49 -10 0 -2 -11 -26 -25 -53 -22
-43 -33 -53 -104 -88 -96 -48 -174 -66 -258 -59 -151 12 -233 122 -237 320
l-1 72 -65 32 c-124 60 -200 148 -220 253 -21 110 38 239 148 321 31 24 61 46
66 51 5 4 -4 32 -21 65 -74 138 -95 306 -52 398 71 152 297 209 555 142 l51
-13 54 64 c96 116 189 177 287 191 48 6 130 4 140 -4z m-71 -220 l50 -15 6
-92 c4 -51 20 -144 37 -207 17 -63 28 -116 26 -118 -2 -2 -69 -26 -150 -53
-147 -50 -270 -80 -324 -80 -16 0 -43 -3 -59 -6 l-30 -6 12 -66 c39 -201 132
-337 313 -457 39 -26 72 -49 72 -49 0 -1 -28 -45 -62 -98 -35 -53 -77 -118
-93 -145 l-30 -48 -61 1 c-80 1 -143 31 -214 103 -92 92 -123 182 -95 277 l16
56 -51 54 c-67 71 -92 129 -98 226 -4 70 -2 83 25 140 52 109 114 156 285 217
140 49 159 68 184 187 34 163 108 218 241 179z m10953 -135 c-26 -49 -110
-129 -193 -184 -284 -189 -588 -582 -821 -1061 -51 -105 -152 -345 -179 -427
-3 -9 -25 -27 -49 -39 -24 -12 -55 -30 -70 -41 -16 -11 -28 -15 -28 -10 0 14
124 378 165 482 95 244 232 485 370 650 164 196 464 446 714 594 52 31 96 56
98 56 2 0 -1 -9 -7 -20z m-10325 -1600 c549 -117 894 -466 895 -906 0 -121
-44 -304 -99 -412 -68 -134 -204 -206 -326 -173 -63 17 -132 66 -165 118 -24
37 -30 58 -30 101 0 69 24 110 88 150 114 73 217 80 257 19 33 -51 -13 -81
-109 -71 -73 7 -98 -2 -126 -49 -30 -49 -25 -74 23 -122 103 -104 234 -70 307
78 16 34 42 107 56 162 34 132 31 288 -9 407 -80 247 -323 457 -639 552 -154
46 -251 60 -428 60 -194 0 -311 -18 -475 -73 l-110 -36 -50 25 c-97 48 -293
37 -408 -22 -102 -52 -188 -174 -209 -299 -10 -56 -8 -75 10 -147 l21 -84 -33
-66 c-107 -214 -145 -457 -88 -568 82 -159 295 -150 465 21 77 76 95 111 75
152 -10 21 -27 33 -68 46 -69 23 -80 33 -80 69 0 45 48 88 98 88 66 0 162 -83
182 -158 29 -109 -79 -270 -253 -375 -88 -53 -153 -70 -251 -65 -132 7 -218
66 -275 188 -53 115 -36 320 44 534 l37 99 -12 97 c-37 325 110 562 395 635
106 27 305 15 408 -24 23 -9 47 -5 130 19 166 49 258 60 467 55 138 -3 210 -9
285 -25z m11351 15 c58 -9 149 -29 204 -45 80 -24 104 -28 127 -19 103 39 302
51 408 24 284 -73 432 -311 395 -635 l-12 -97 37 -99 c80 -214 97 -419 44
-534 -57 -122 -143 -181 -275 -188 -98 -5 -163 12 -251 65 -173 105 -281 264
-253 374 14 52 30 74 94 122 62 48 114 51 157 8 31 -32 39 -80 16 -99 -7 -6
-37 -19 -67 -29 -105 -35 -104 -88 7 -198 210 -211 471 -167 491 82 9 119 -38
314 -112 461 l-35 70 20 83 c19 72 20 91 10 148 -20 125 -105 247 -208 299
-116 59 -312 70 -409 22 l-50 -25 -50 18 c-93 36 -269 75 -388 87 -547 57
-1076 -205 -1211 -597 -62 -181 -36 -445 60 -609 72 -123 197 -144 292 -49 48
48 53 73 23 122 -28 47 -53 56 -126 49 -96 -10 -142 20 -109 71 40 61 143 54
257 -19 64 -40 88 -81 88 -150 0 -129 -141 -240 -288 -225 -156 16 -270 177
-317 446 -47 266 28 510 217 707 194 202 469 326 813 367 83 10 308 5 401 -8z
m-5797 -214 c82 -66 158 -125 168 -131 15 -10 46 -1 176 50 87 34 161 59 164
56 3 -3 -13 -63 -35 -133 -22 -70 -43 -138 -47 -150 l-6 -23 -574 0 -574 0 -6
23 c-4 12 -25 80 -47 150 -22 70 -38 130 -35 133 3 3 77 -22 164 -56 130 -51
161 -60 176 -50 10 6 86 65 168 131 82 65 152 119 154 119 2 0 72 -54 154
-119z m-5505 30 c132 -34 294 -106 391 -175 245 -175 356 -439 299 -713 -42
-205 -110 -303 -209 -303 -69 0 -138 66 -115 110 17 32 46 42 105 35 70 -9
121 7 141 47 43 83 -49 162 -169 144 -92 -14 -224 -99 -242 -157 -9 -26 -17
-24 -51 12 -48 52 -138 89 -214 89 -142 -1 -223 -83 -223 -227 1 -119 70 -213
168 -228 32 -6 45 -2 68 15 42 34 37 74 -17 126 -51 49 -61 72 -45 107 14 31
40 39 82 25 58 -20 97 -70 97 -125 0 -32 -33 -109 -58 -136 -26 -29 -86 -57
-137 -64 -43 -5 -47 -4 -95 41 -97 90 -205 122 -452 133 -183 7 -208 16 -271
98 -36 47 -38 53 -32 102 9 72 -9 127 -58 180 -106 115 -228 128 -287 30 -24
-38 -26 -94 -5 -124 9 -12 42 -32 75 -44 81 -29 81 -49 -3 -132 -46 -46 -79
-69 -130 -89 -128 -53 -217 -32 -265 62 -21 40 -23 55 -19 140 6 120 41 241
107 377 l51 103 -22 71 c-38 125 -7 248 87 344 110 113 361 153 467 74 29 -21
32 -21 76 -6 77 27 291 77 371 87 41 5 152 7 246 4 148 -3 188 -8 288 -33z
m11221 29 c91 -10 301 -58 386 -87 44 -15 47 -15 76 6 106 79 357 39 467 -74
94 -96 125 -219 87 -344 l-22 -71 51 -103 c66 -136 101 -257 107 -377 4 -85 2
-100 -19 -140 -48 -94 -137 -115 -265 -62 -51 20 -84 43 -131 90 -82 82 -82
105 -2 132 30 10 63 28 72 40 24 29 23 87 -2 127 -59 98 -181 85 -287 -30 -49
-53 -67 -108 -58 -180 6 -49 4 -55 -32 -102 -63 -82 -88 -91 -271 -98 -247
-11 -355 -43 -452 -133 -48 -45 -52 -46 -95 -41 -51 7 -111 35 -137 64 -25 27
-58 104 -58 136 0 55 39 105 97 125 42 14 68 6 82 -25 16 -35 6 -58 -45 -107
-54 -52 -59 -92 -17 -126 23 -17 36 -21 68 -15 98 15 167 109 168 228 0 144
-81 226 -223 227 -76 0 -166 -37 -214 -89 -34 -36 -42 -38 -51 -12 -18 58
-150 143 -242 157 -120 18 -212 -61 -169 -144 20 -40 71 -56 141 -47 59 7 88
-3 105 -35 23 -44 -46 -110 -115 -110 -75 0 -127 49 -169 161 -78 208 -73 399
15 579 35 70 59 102 138 180 134 132 291 219 491 271 141 36 355 48 525 29z
m-5295 -535 l0 -85 -575 0 -575 0 0 85 0 85 575 0 575 0 0 -85z m-100 -535 l0
-400 -475 0 -475 0 0 400 0 400 475 0 475 0 0 -400z m-4730 -65 c456 -755 721
-1117 1090 -1486 306 -307 570 -500 915 -669 473 -232 1022 -378 1680 -447
243 -25 897 -25 1140 0 658 69 1203 214 1680 447 344 168 609 362 915 669 328
329 625 722 967 1283 59 98 157 259 218 358 l110 180 17 -102 c20 -120 67
-263 110 -330 113 -179 314 -220 475 -99 l51 39 7 -36 c15 -84 98 -197 184
-253 l25 -16 -52 -151 c-330 -959 -982 -1817 -1792 -2357 -594 -396 -1318
-673 -2155 -824 -721 -131 -1543 -150 -2295 -56 -836 106 -1630 357 -2255 714
-587 335 -1117 835 -1513 1428 -237 353 -431 751 -562 1147 l-33 100 24 15
c86 56 169 169 184 253 l7 36 51 -39 c161 -121 361 -80 476 99 41 64 97 238
112 345 l12 88 40 -63 c22 -35 97 -157 167 -273z m-1052 131 c52 -27 113 -87
133 -131 26 -56 25 -159 -2 -229 -38 -102 -147 -196 -246 -212 -38 -6 -38 -5
-54 39 l-16 45 54 12 c131 29 222 176 184 293 -21 61 -103 117 -174 117 -11 0
-34 -15 -53 -34 -52 -52 -45 -116 19 -166 15 -12 32 -31 38 -42 25 -46 -44
-55 -106 -14 -36 24 -65 94 -65 159 0 88 30 143 95 174 39 18 149 12 193 -11z
m10829 -2 c52 -39 67 -70 71 -144 6 -108 -33 -176 -116 -199 -42 -12 -69 7
-53 37 6 11 23 30 38 42 64 50 71 114 19 166 -19 19 -42 34 -52 34 -40 0 -96
-22 -129 -51 -116 -103 -33 -321 138 -359 l54 -12 -16 -45 c-16 -44 -16 -45
-54 -39 -99 16 -208 110 -246 212 -25 66 -28 169 -6 222 27 65 101 129 175
153 45 15 147 5 177 -17z m-11750 -283 c34 -17 68 -22 195 -27 84 -3 183 -12
220 -19 165 -33 270 -127 314 -280 14 -51 15 -69 5 -123 -25 -135 -130 -277
-254 -343 -140 -75 -363 -37 -494 84 -59 54 -76 90 -76 158 0 78 36 139 106
179 77 44 107 39 122 -22 6 -22 2 -29 -22 -44 -81 -50 -106 -99 -79 -152 35
-67 199 -139 299 -130 70 6 120 32 181 93 94 93 132 215 93 292 -67 128 -178
179 -426 194 -132 8 -163 13 -210 34 -58 27 -141 89 -141 107 0 5 12 27 28 48
l27 39 35 -34 c19 -18 54 -42 77 -54z m12623 2 c0 -18 -80 -80 -141 -108 -48
-21 -78 -26 -211 -34 -226 -14 -325 -52 -399 -154 -55 -76 -57 -134 -8 -233
29 -59 112 -143 165 -169 60 -28 132 -31 211 -7 85 26 154 71 179 117 19 35
19 36 -1 72 -11 21 -39 50 -63 66 -38 26 -43 33 -37 56 15 60 45 65 122 21 56
-32 96 -88 107 -150 28 -162 -196 -321 -434 -308 -61 4 -87 11 -137 37 -124
66 -229 208 -254 343 -10 54 -9 72 5 123 44 153 149 247 314 280 37 7 136 16
220 19 170 7 216 21 276 85 l29 30 28 -37 c16 -20 29 -42 29 -49z m-12698
-144 c66 -34 94 -39 243 -49 260 -16 375 -66 404 -178 25 -92 -53 -223 -164
-278 -78 -38 -147 -32 -252 22 -67 33 -78 43 -81 67 -4 33 9 51 60 83 58 37
63 100 13 150 -31 31 -74 31 -133 2 -60 -30 -105 -86 -153 -188 -89 -188 -224
-271 -477 -295 -69 -7 -74 -6 -122 25 -62 40 -131 116 -162 178 -19 39 -23 63
-23 137 0 76 4 99 26 146 14 30 45 75 67 98 35 37 45 43 69 37 15 -4 65 -10
110 -13 130 -9 250 36 371 141 l54 46 54 -55 c30 -30 73 -64 96 -76z m12839
63 c109 -89 219 -127 343 -119 45 3 94 9 109 13 24 6 34 0 69 -37 22 -23 53
-68 67 -98 22 -47 26 -70 26 -146 0 -74 -4 -98 -23 -137 -31 -62 -100 -138
-162 -178 -48 -31 -53 -32 -122 -25 -253 24 -388 107 -477 295 -50 106 -89
154 -152 185 -62 32 -103 32 -134 1 -50 -50 -45 -113 13 -150 51 -32 64 -50
60 -83 -3 -24 -14 -34 -81 -67 -105 -54 -174 -60 -252 -22 -111 55 -189 186
-164 278 29 112 144 162 404 178 196 13 248 32 338 125 58 60 46 61 138 -13z
m-5961 -392 l0 -240 -575 0 -575 0 0 240 0 240 575 0 575 0 0 -240z m-5917 31
c180 -556 507 -1132 917 -1611 116 -135 375 -395 510 -510 806 -688 1905
-1099 3280 -1227 263 -24 1007 -24 1270 0 1374 128 2475 540 3280 1227 134
115 394 374 510 510 409 477 728 1037 917 1610 21 63 39 116 39 118 1 2 20 -2
43 -8 l40 -11 -55 -161 c-343 -998 -1029 -1892 -1879 -2451 -677 -444 -1554
-749 -2521 -876 -634 -84 -1384 -84 -2018 0 -725 95 -1398 289 -1971 568 -498
242 -843 484 -1224 856 -468 458 -840 1004 -1094 1612 -57 135 -157 414 -157
438 0 12 40 33 65 34 6 0 27 -53 48 -118z m-986 -248 c15 -23 14 -25 -64 -102
-118 -117 -187 -144 -448 -180 -108 -15 -161 -47 -197 -120 -33 -64 -36 -124
-12 -195 22 -65 110 -158 182 -193 51 -25 68 -28 157 -28 89 0 106 3 156 28
99 48 209 166 209 222 0 38 -33 59 -84 52 -87 -12 -105 53 -26 93 126 64 230
10 230 -121 0 -118 -115 -261 -274 -340 -81 -40 -95 -43 -183 -47 -70 -3 -112
0 -159 13 -121 33 -243 135 -300 252 -36 72 -45 197 -20 269 48 140 155 209
362 234 183 22 277 68 389 192 l50 55 8 -30 c5 -16 15 -40 24 -54z m12846 -70
c70 -51 149 -77 281 -93 207 -25 314 -94 362 -234 25 -72 16 -197 -20 -269
-57 -117 -179 -219 -300 -252 -47 -13 -89 -16 -159 -13 -88 4 -102 7 -183 47
-159 79 -274 222 -274 340 0 131 104 185 230 121 79 -40 61 -105 -26 -93 -51
7 -84 -14 -84 -52 0 -56 110 -174 209 -222 50 -25 67 -28 156 -28 89 0 106 3
157 28 72 35 160 128 182 193 24 71 21 131 -11 195 -37 73 -90 105 -198 120
-261 36 -330 64 -447 179 l-79 78 20 38 c12 21 21 47 21 57 0 13 16 2 53 -39
28 -32 78 -77 110 -101z m-11964 69 c32 -15 42 -32 106 -182 39 -91 87 -197
107 -236 l37 -71 -23 -49 c-13 -27 -42 -70 -65 -96 l-41 -46 -47 14 c-37 11
-104 14 -303 12 -244 -3 -258 -2 -315 19 -32 13 -82 38 -111 57 -46 31 -53 41
-64 85 -26 110 -106 170 -209 158 -139 -16 -224 -129 -160 -211 18 -23 28 -26
80 -26 36 0 59 -4 59 -11 0 -21 -125 -135 -175 -160 -42 -20 -65 -24 -145 -24
-85 0 -100 3 -141 27 -55 32 -125 107 -145 153 -21 51 -18 123 9 169 31 56 89
82 210 96 197 23 305 67 402 164 34 34 68 72 76 85 l16 25 34 -26 c104 -78
243 -122 366 -116 116 6 206 51 294 147 70 76 77 78 148 43z m11037 -42 c90
-95 182 -141 293 -148 45 -3 102 1 133 8 66 16 190 72 237 107 l34 27 16 -25
c8 -13 42 -51 76 -85 97 -97 205 -141 402 -164 121 -14 179 -40 210 -96 27
-46 30 -118 9 -169 -20 -46 -90 -121 -145 -153 -41 -24 -56 -27 -141 -27 -80
0 -103 4 -145 24 -50 25 -175 139 -175 160 0 7 23 11 59 11 52 0 62 3 80 26
64 82 -21 195 -160 211 -103 12 -183 -48 -209 -158 -11 -44 -18 -54 -64 -85
-29 -19 -79 -44 -111 -57 -57 -21 -71 -22 -315 -19 -199 2 -266 -1 -303 -12
l-47 -14 -41 46 c-23 26 -52 69 -65 96 l-23 49 44 88 c25 48 72 152 106 231
33 79 66 148 72 155 11 11 80 41 100 42 4 1 37 -31 73 -69z m-4896 -270 l0
-240 -695 0 -695 0 0 240 0 240 695 0 695 0 0 -240z m168 -307 l3 -33 -865 0
-866 0 0 28 c0 16 3 32 7 35 3 4 392 6 862 5 l856 -3 3 -32z m-6972 -8 c121
-73 156 -79 459 -80 260 0 272 -1 320 -23 167 -77 211 -255 103 -424 -99 -157
-259 -227 -492 -216 -144 8 -235 45 -272 114 -36 66 17 156 90 156 45 0 71
-18 55 -38 -6 -8 -17 -14 -23 -14 -7 0 -23 -11 -36 -25 -32 -34 -17 -65 47
-96 98 -49 295 -24 423 53 65 39 110 96 140 175 29 76 23 124 -21 169 -57 59
-99 65 -369 58 -263 -7 -321 0 -428 56 -98 51 -96 49 -76 114 10 31 19 56 20
56 1 0 28 -16 60 -35z m12298 -21 c20 -65 22 -63 -76 -114 -107 -56 -165 -63
-428 -56 -265 7 -311 0 -368 -55 -41 -40 -50 -86 -28 -155 35 -112 111 -188
231 -233 73 -27 188 -45 248 -37 64 7 136 42 149 72 10 20 8 28 -12 49 -13 14
-29 25 -36 25 -6 0 -17 6 -23 14 -16 20 10 38 55 38 73 0 126 -90 90 -156 -37
-69 -128 -106 -272 -114 -233 -11 -393 59 -492 216 -108 169 -64 347 103 424
48 22 60 23 320 23 302 1 340 7 455 79 30 19 58 34 61 35 3 1 13 -24 23 -55z
m-5084 -89 l0 -55 -1105 0 -1105 0 0 55 0 55 1105 0 1105 0 0 -55z m-7291 -42
c127 -85 261 -109 501 -92 240 17 323 3 350 -60 33 -80 -53 -212 -177 -274
-64 -32 -137 -47 -233 -47 -66 0 -83 3 -100 20 -25 25 -17 46 30 70 21 11 40
26 43 35 15 36 -84 83 -150 70 -19 -3 -52 -22 -74 -42 -91 -82 -71 -206 43
-264 71 -36 171 -51 323 -47 l140 3 13 -40 c45 -131 -40 -444 -151 -563 -67
-71 -231 -144 -355 -158 -192 -20 -375 73 -432 222 -55 142 -19 287 84 341 63
33 206 8 206 -36 0 -9 -19 -32 -42 -52 -37 -32 -43 -41 -43 -78 0 -138 229
-129 302 12 52 102 -27 261 -169 338 -61 33 -67 34 -173 34 -99 0 -115 -3
-165 -27 -31 -15 -74 -43 -97 -63 -41 -35 -41 -35 -95 -24 -131 28 -254 125
-310 246 -37 77 -49 196 -28 271 10 39 14 43 33 37 87 -27 132 -35 205 -35
149 0 291 64 402 181 30 32 57 58 59 58 2 1 29 -16 60 -36z m12489 -22 c170
-173 370 -221 609 -146 19 6 23 2 33 -37 21 -75 9 -194 -28 -271 -56 -121
-179 -218 -310 -246 -54 -11 -54 -11 -95 24 -23 20 -66 48 -97 63 -50 24 -66
27 -165 27 -106 0 -112 -1 -173 -34 -142 -77 -221 -236 -169 -338 73 -141 302
-150 302 -12 0 37 -6 46 -43 78 -23 20 -42 43 -42 52 0 44 143 69 206 36 103
-54 139 -199 84 -341 -57 -149 -240 -242 -432 -222 -124 14 -288 87 -355 158
-111 119 -196 432 -151 563 l13 40 140 -3 c152 -4 252 11 323 47 114 58 134
182 43 264 -22 20 -55 39 -74 42 -66 13 -165 -34 -150 -70 3 -9 22 -24 43 -35
47 -24 55 -45 30 -70 -39 -39 -234 -23 -333 27 -124 62 -210 194 -177 274 27
63 110 78 350 60 238 -17 371 7 495 89 33 22 61 40 63 40 1 0 28 -26 60 -59z
m-4948 -111 l0 -80 -1355 0 -1355 0 0 80 0 80 1355 0 1355 0 0 -80z m210 -215
l0 -95 -1565 0 -1565 0 0 95 0 95 1565 0 1565 0 0 -95z m-6874 -282 c10 -99
-2 -277 -26 -373 -64 -261 -216 -426 -470 -511 -182 -60 -354 -49 -528 37
-140 68 -236 199 -262 357 -38 225 68 410 265 462 166 44 351 -63 390 -225 7
-32 -30 -107 -68 -134 -19 -14 -44 -21 -76 -21 -87 0 -108 50 -43 104 80 66
75 58 55 94 -38 67 -178 100 -267 63 -119 -50 -177 -188 -142 -339 21 -89 48
-140 105 -196 58 -59 135 -97 237 -118 144 -30 324 9 462 99 81 53 124 104
172 203 67 137 99 337 76 470 l-7 40 53 27 c29 15 56 27 60 27 3 1 10 -29 14
-66z m10689 40 l56 -28 -7 -40 c-4 -22 -7 -79 -6 -127 2 -184 78 -387 182
-488 129 -127 360 -194 540 -156 194 41 308 154 341 337 22 123 -21 236 -114
297 -33 22 -54 28 -116 30 -64 3 -83 -1 -121 -20 -24 -13 -53 -37 -63 -55 -20
-36 -25 -28 56 -94 64 -54 43 -104 -44 -104 -32 0 -57 7 -76 21 -38 27 -75
102 -68 134 39 162 224 269 390 225 197 -52 303 -237 265 -462 -35 -210 -179
-354 -414 -413 -179 -45 -388 -6 -562 105 -189 121 -300 345 -312 631 -4 109
3 234 13 234 3 0 30 -12 60 -27z"/>
<path d="M10245 23865 c-33 -32 -31 -60 4 -96 69 -69 178 -12 145 76 -9 22
-57 45 -94 45 -19 0 -40 -9 -55 -25z"/>
<path d="M8647 23853 c-31 -8 -35 -43 -24 -192 l10 -144 -32 -29 c-42 -38
-116 -40 -157 -5 -26 22 -28 30 -36 148 -10 146 -13 163 -34 183 -20 21 -124
23 -124 3 0 -8 10 -13 22 -13 34 1 45 -34 53 -176 7 -124 8 -131 35 -161 29
-32 29 -32 124 -30 71 1 103 6 125 19 49 29 55 56 43 211 -8 97 -8 141 0 150
13 17 62 17 76 1 5 -7 19 -145 31 -307 19 -274 20 -296 4 -313 -58 -65 -183
47 -153 137 13 38 53 75 81 75 11 0 19 6 19 14 0 11 -8 12 -32 6 -51 -12 -66
-20 -81 -43 -36 -57 -27 -134 23 -190 27 -31 31 -32 109 -32 74 0 83 2 107 26
l26 26 -21 289 c-12 159 -21 297 -21 306 0 34 -28 48 -93 47 -34 -1 -70 -3
-80 -6z"/>
<path d="M8880 23696 l0 -164 28 -30 c33 -35 85 -52 163 -52 81 0 113 8 151
40 l33 28 5 158 c5 151 6 159 25 159 19 0 20 -8 25 -175 l5 -175 35 -17 c41
-21 90 -24 90 -5 0 7 -10 17 -22 22 -22 10 -23 14 -26 193 l-2 182 -74 0 -73
0 -6 -82 c-4 -46 -7 -120 -7 -165 0 -78 -1 -82 -31 -107 -26 -23 -40 -26 -101
-26 -66 0 -72 2 -104 34 l-34 34 0 156 0 156 -40 0 -40 0 0 -164z"/>
<path d="M9470 23836 c0 -9 7 -16 15 -16 31 0 33 -34 9 -205 -12 -93 -20 -173
-16 -177 4 -3 37 -9 73 -13 79 -8 71 -23 95 163 19 147 32 175 88 190 41 12
116 1 151 -22 48 -31 51 -52 28 -219 -11 -84 -20 -153 -19 -154 1 -1 20 -5 42
-8 l40 -7 21 159 c20 149 21 160 5 193 -23 48 -62 67 -164 80 -99 13 -140 5
-178 -34 -18 -20 -25 -50 -42 -168 -11 -79 -23 -146 -26 -150 -4 -4 -14 -3
-21 2 -13 7 -11 31 7 166 19 141 20 161 7 181 -18 26 -38 38 -82 48 -26 5 -33
3 -33 -9z"/>
<path d="M7963 23786 c-73 -13 -136 -25 -140 -29 -14 -15 7 -16 90 -5 82 11
89 10 115 -8 70 -51 103 -217 56 -280 -34 -46 -67 -65 -125 -71 -48 -5 -58 -2
-82 18 -23 20 -29 37 -39 108 l-12 83 31 28 c23 21 47 30 86 35 55 7 86 19 75
30 -11 11 -203 -25 -228 -44 -45 -32 -51 -59 -36 -147 18 -100 22 -109 54
-130 30 -20 85 -21 165 -4 110 22 163 83 161 185 -1 74 -27 155 -59 185 -14
13 -25 27 -25 32 0 14 68 9 83 -6 12 -12 44 -168 63 -309 7 -48 8 -49 37 -43
16 3 35 6 42 6 9 0 5 43 -16 163 -15 89 -30 170 -34 180 -10 25 -58 47 -97 46
-18 -1 -93 -11 -165 -23z"/>
<path d="M7073 23763 c-32 -6 -29 -30 3 -30 14 0 29 -4 34 -9 5 -5 40 -120 78
-257 38 -136 72 -250 75 -253 8 -8 115 17 131 30 11 9 7 35 -25 146 -21 74
-39 148 -39 163 0 78 147 136 226 88 27 -17 34 -32 73 -173 l43 -156 36 11
c21 6 38 12 40 13 2 1 -16 71 -39 155 -47 168 -62 193 -128 205 -36 7 -140
-14 -208 -42 -37 -14 -73 -66 -73 -104 0 -13 16 -82 37 -153 27 -96 33 -131
25 -139 -8 -8 -15 -9 -22 -2 -6 6 -40 116 -76 245 -36 129 -71 240 -78 247
-14 15 -77 23 -113 15z"/>
<path d="M10176 23699 c-8 -19 -27 -88 -41 -154 -27 -129 -49 -165 -101 -165
-27 0 -32 -15 -8 -24 22 -8 80 18 97 46 8 12 27 77 42 143 32 142 44 164 79
158 49 -10 50 -20 7 -209 -22 -98 -39 -179 -38 -181 1 -1 20 -3 41 -5 l39 -3
39 175 c21 96 36 185 33 197 -6 24 -41 37 -128 49 -45 6 -46 6 -61 -27z"/>
<path d="M10420 23681 c0 -6 7 -14 15 -17 29 -12 25 -46 -24 -204 -28 -89 -51
-165 -51 -169 0 -11 133 -51 141 -42 4 3 27 72 53 153 42 132 50 149 76 163
84 43 220 -15 220 -95 0 -15 -18 -86 -40 -156 -22 -71 -40 -134 -40 -141 0
-10 71 -38 75 -30 1 1 22 71 48 156 l47 153 -19 43 c-22 50 -43 63 -153 95
-148 43 -185 16 -242 -177 -32 -108 -43 -133 -58 -133 -25 0 -24 13 27 175 48
156 49 179 3 209 -33 21 -78 31 -78 17z"/>
<path d="M6855 23499 c-27 -11 -54 -24 -58 -28 -4 -4 17 -69 48 -144 59 -146
63 -163 40 -206 -29 -57 -161 -92 -211 -56 -13 8 -45 72 -79 157 -32 79 -59
145 -61 146 -6 8 -74 -23 -73 -33 0 -5 26 -73 58 -150 81 -197 113 -215 268
-154 156 61 170 103 93 288 -48 116 -55 151 -30 151 12 0 17 -12 94 -197 54
-128 72 -143 145 -123 43 11 59 41 18 33 -13 -3 -29 2 -35 10 -7 8 -41 84 -76
168 -36 88 -69 155 -77 156 -8 1 -36 -7 -64 -18z"/>
<path d="M11035 23471 c-32 -14 -49 -40 -98 -156 -52 -122 -54 -134 -30 -176
18 -31 36 -41 156 -88 139 -56 161 -43 235 132 30 69 60 131 68 138 20 16 68
0 72 -24 4 -21 -212 -532 -236 -559 -18 -21 -32 -22 -67 -6 -54 24 -71 106
-35 165 25 41 53 56 101 51 43 -4 55 15 17 26 -95 25 -176 -51 -166 -155 6
-61 38 -98 105 -122 61 -22 85 -21 112 1 25 20 251 541 251 577 0 29 -23 46
-98 71 -39 14 -56 16 -69 8 -10 -6 -44 -71 -75 -145 -32 -74 -66 -140 -75
-146 -27 -21 -79 -15 -146 16 -49 22 -66 35 -77 60 -12 30 -10 39 34 144 26
62 57 120 68 130 28 24 68 21 141 -9 103 -44 107 -45 107 -31 0 15 -224 108
-255 107 -11 -1 -29 -5 -40 -9z"/>
<path d="M11844 23300 c-19 -7 -284 -437 -284 -460 0 -9 120 -84 125 -78 2 2
38 62 81 133 43 72 85 135 93 142 27 21 90 15 143 -14 51 -28 78 -64 78 -105
0 -24 -99 -196 -125 -218 -30 -25 -95 -16 -162 24 -61 36 -83 43 -83 28 0 -14
184 -114 220 -119 68 -10 100 14 165 123 90 150 82 191 -54 273 -84 50 -133
60 -182 37 -27 -13 -50 -43 -109 -141 -70 -118 -90 -139 -105 -115 -4 6 53
110 125 231 129 217 132 220 162 217 46 -5 45 17 -2 36 -45 18 -55 19 -86 6z"/>
<path d="M6310 23268 c-35 -18 -69 -41 -74 -51 -9 -14 3 -46 63 -160 l74 -142
-17 -32 c-18 -35 -80 -73 -119 -73 -40 0 -65 29 -130 150 -76 140 -92 151
-167 119 -55 -23 -57 -34 -7 -34 30 0 35 -6 102 -128 38 -71 79 -135 89 -143
37 -27 95 -17 176 29 61 34 77 49 88 79 16 42 21 29 -81 224 -30 56 -45 97
-41 107 7 18 46 32 67 24 13 -5 297 -525 297 -545 0 -18 -51 -52 -79 -52 -103
0 -170 140 -96 199 36 27 32 45 -5 26 -34 -17 -60 -61 -60 -100 0 -39 37 -104
72 -125 55 -33 82 -34 147 -5 61 28 91 58 91 94 0 23 -263 515 -293 549 -11
12 -24 22 -27 22 -4 0 -35 -15 -70 -32z"/>
<path d="M5694 22929 c-140 -88 -161 -104 -147 -112 5 -3 40 14 77 39 74 47
108 54 155 30 60 -31 130 -138 131 -199 1 -95 -116 -186 -189 -147 -10 5 -37
39 -61 75 -36 56 -41 70 -36 100 6 30 18 42 71 78 62 40 78 57 54 57 -6 0 -49
-25 -96 -55 -63 -42 -88 -64 -99 -91 -18 -44 -13 -60 43 -145 71 -107 114
-113 235 -32 111 73 132 142 77 251 -32 65 -108 142 -140 142 -11 0 -19 4 -19
10 0 14 35 30 64 30 22 0 40 -22 126 -150 l100 -149 35 20 c21 13 32 26 28 32
-47 80 -187 279 -202 287 -42 22 -77 11 -207 -71z"/>
<path d="M12322 22838 c3 -7 33 -33 69 -58 78 -56 92 -92 65 -163 -50 -131
-161 -196 -254 -148 -96 49 -106 98 -39 190 45 64 82 87 119 76 13 -5 49 -25
80 -46 84 -58 81 -28 -4 32 -138 97 -174 99 -245 10 -63 -79 -76 -107 -69
-147 7 -36 59 -87 134 -131 62 -37 137 -36 191 2 57 39 112 124 126 193 l11
56 27 -26 c15 -15 27 -34 27 -41 0 -8 -47 -79 -105 -158 l-105 -143 28 -23
c15 -12 31 -21 37 -19 5 1 53 63 107 136 103 142 115 172 83 217 -15 21 -266
203 -280 203 -4 0 -5 -6 -3 -12z"/>
<path d="M5365 22708 c-53 -30 -105 -82 -105 -104 0 -14 34 -63 90 -131 49
-59 93 -119 97 -132 9 -34 -12 -67 -75 -118 -42 -34 -61 -43 -91 -43 -37 0
-43 5 -103 78 -111 134 -112 135 -99 174 8 23 34 51 86 92 41 32 72 62 69 67
-7 12 -26 1 -128 -83 -92 -74 -113 -107 -102 -152 6 -24 143 -200 174 -223 9
-7 35 -13 58 -13 36 0 54 9 121 60 101 76 114 90 120 137 5 37 0 44 -91 157
-53 65 -96 124 -96 131 0 23 38 48 62 41 24 -7 386 -442 395 -475 6 -22 -30
-59 -65 -68 -12 -3 -43 2 -68 12 -77 29 -108 112 -63 169 31 40 12 47 -22 8
-65 -72 -16 -183 92 -212 48 -13 106 9 157 60 59 59 54 69 -143 310 -168 205
-226 270 -243 270 -4 0 -16 -6 -27 -12z"/>
<path d="M12613 22471 c-114 -119 -129 -143 -119 -197 9 -47 100 -144 162
-175 76 -36 104 -25 225 97 98 98 129 120 129 92 0 -7 -45 -61 -99 -119 -55
-59 -102 -117 -106 -129 -15 -48 4 -88 71 -153 80 -76 98 -86 149 -86 55 0 69
10 175 122 51 53 96 97 101 97 5 0 12 -7 16 -15 3 -11 -29 -51 -98 -123 -130
-134 -134 -137 -165 -124 -37 18 -38 -4 -1 -32 22 -17 47 -26 70 -26 32 0 45
11 156 126 67 70 121 130 121 134 0 4 -23 29 -51 55 l-51 48 -119 -119 c-109
-108 -121 -118 -154 -117 -70 2 -155 82 -155 145 0 29 69 115 169 213 28 27
51 53 51 57 0 8 -87 91 -101 96 -5 2 -60 -49 -123 -114 l-113 -117 -48 6 c-43
4 -55 12 -97 55 -40 42 -48 57 -48 88 0 32 10 47 83 123 45 47 95 101 111 118
l30 33 -24 25 c-13 14 -28 24 -34 24 -6 -1 -57 -50 -113 -108z"/>
<path d="M4853 22279 c-58 -29 -149 -128 -157 -172 -10 -54 8 -85 116 -193 91
-92 110 -124 75 -124 -6 0 -63 52 -127 115 -136 134 -153 140 -218 80 l-37
-35 42 6 42 6 128 -125 128 -125 55 48 55 49 -119 120 -119 121 6 42 c5 35 15
52 56 90 43 42 55 48 92 48 40 0 47 -5 159 -115 l116 -115 29 30 29 30 -104
106 c-142 143 -165 154 -247 113z"/>
<path d="M4451 21884 c-36 -26 -221 -246 -214 -257 3 -5 35 23 72 62 73 78 96
86 167 56 134 -56 191 -178 128 -271 -35 -52 -52 -63 -94 -64 -28 0 -48 11
-98 51 -90 74 -92 102 -17 190 25 29 41 57 38 62 -6 11 -40 -24 -114 -116 -30
-38 -39 -58 -39 -87 0 -43 12 -59 93 -124 62 -49 108 -59 153 -33 27 15 99 99
119 137 21 40 19 104 -5 150 -34 66 -156 149 -219 150 l-24 0 23 25 c13 14 33
25 45 25 12 0 79 -47 155 -110 74 -60 138 -110 141 -110 7 0 52 61 47 64 -1 1
-52 43 -113 92 -60 49 -121 98 -135 107 -31 21 -79 22 -109 1z"/>
<path d="M13500 21804 c0 -3 23 -33 50 -66 58 -69 66 -93 50 -142 -14 -43
-107 -130 -156 -146 -77 -26 -163 11 -198 84 -24 52 -13 79 59 136 50 39 71
50 99 50 39 0 53 -11 113 -84 17 -21 36 -35 42 -32 12 8 -119 170 -145 180 -9
3 -33 6 -53 6 -31 0 -51 -10 -109 -56 -106 -84 -108 -128 -15 -233 60 -67 101
-91 155 -91 83 0 217 103 239 182 l11 42 20 -32 c13 -20 18 -41 14 -55 -3 -13
-62 -66 -141 -127 -74 -58 -134 -107 -134 -110 0 -3 11 -18 25 -33 17 -20 29
-26 37 -20 150 115 266 216 271 237 10 39 -8 71 -112 197 -83 101 -122 137
-122 113z"/>
<path d="M13779 21483 c0 -5 -2 -21 -2 -38 -2 -27 -17 -40 -144 -125 -78 -52
-146 -98 -149 -102 -9 -10 65 -118 80 -118 6 0 70 39 141 86 138 90 156 95
212 59 63 -41 98 -148 63 -191 -8 -9 -72 -55 -143 -101 l-128 -84 22 -32 c13
-18 23 -33 24 -34 4 -7 275 178 283 193 10 20 15 53 13 91 -2 32 -99 171 -131
188 -61 32 -98 21 -230 -65 -67 -44 -126 -77 -131 -74 -23 14 1 38 118 115 69
46 132 90 140 97 7 7 13 28 13 45 0 40 -47 122 -51 90z"/>
<path d="M4085 21436 c-38 -17 -54 -35 -104 -121 -74 -126 -58 -162 114 -263
114 -67 140 -91 116 -106 -4 -3 -65 28 -134 69 -135 80 -163 88 -223 59 -38
-18 -122 -146 -131 -199 -11 -66 15 -96 148 -177 111 -66 156 -108 117 -108
-7 0 -75 36 -150 80 -137 80 -162 89 -199 69 -34 -18 -79 -99 -79 -141 0 -60
43 -129 70 -113 8 5 7 12 -4 24 -25 28 -47 91 -40 114 9 32 34 57 56 57 11 0
84 -38 163 -85 79 -47 149 -85 155 -85 14 0 82 108 76 119 -3 5 -64 43 -136
86 -72 43 -135 86 -140 96 -38 70 47 209 127 209 10 0 80 -36 156 -80 75 -44
139 -80 141 -80 5 0 76 115 76 123 0 3 -58 39 -130 81 -71 43 -136 87 -145 99
-22 32 -18 83 11 133 59 101 97 101 274 -4 l135 -80 17 26 c10 15 18 32 18 39
0 17 -271 173 -300 173 -14 -1 -38 -7 -55 -14z"/>
<path d="M13923 20839 c-115 -60 -128 -91 -82 -189 43 -91 72 -126 124 -145
54 -21 108 -15 182 21 48 23 114 84 125 115 9 23 30 -5 31 -42 2 -33 1 -34
-153 -116 -85 -45 -159 -84 -164 -86 -11 -4 24 -67 38 -67 17 0 281 141 304
162 39 37 30 76 -55 235 -47 88 -81 139 -86 134 -6 -6 4 -35 27 -74 46 -83 47
-119 4 -171 -36 -44 -136 -96 -186 -96 -102 0 -193 114 -152 191 13 23 140 89
173 89 36 0 65 -27 97 -91 27 -53 50 -76 50 -49 0 27 -98 185 -125 202 -43 26
-65 23 -152 -23z"/>
<path d="M13875 17921 c165 -81 278 -164 425 -311 238 -236 444 -556 610 -945
28 -66 53 -122 56 -124 9 -9 -9 98 -31 185 -120 466 -650 1069 -1075 1225
-121 44 -117 35 15 -30z"/>
<path d="M13714 17748 c24 -43 78 -167 121 -275 179 -456 314 -674 578 -929
67 -66 161 -148 207 -183 84 -64 83 -63 -58 73 -285 277 -428 487 -639 945
-106 229 -171 348 -223 411 -25 29 -22 22 14 -42z"/>
<path d="M14038 17665 c39 -60 94 -178 168 -367 83 -211 192 -434 252 -519 22
-29 106 -115 188 -190 159 -145 257 -257 332 -381 25 -42 48 -76 50 -74 7 7
-57 124 -118 214 -38 58 -122 155 -230 266 -205 213 -211 222 -421 669 -96
205 -168 334 -216 385 l-25 27 20 -30z"/>
<path d="M16629 16860 c88 -168 148 -371 171 -578 18 -158 8 -509 -19 -672
-23 -142 -62 -330 -92 -440 -11 -41 -23 -84 -25 -95 l-5 -20 16 20 c31 38 83
150 114 249 110 344 106 843 -9 1236 -36 121 -114 289 -159 340 -31 35 -31 34
8 -40z"/>
<path d="M16412 16753 c-7 -45 -39 -172 -72 -282 -60 -205 -99 -366 -121 -506
-20 -120 -17 -436 4 -575 18 -117 68 -343 74 -336 2 2 -7 61 -19 132 -20 113
-22 164 -22 404 0 317 6 366 98 762 63 271 79 364 74 433 -3 49 -3 48 -16 -32z"/>
<path d="M16612 16447 c-7 -48 -37 -170 -67 -271 -142 -483 -159 -617 -109
-877 39 -206 47 -447 19 -594 -4 -22 -5 -37 -1 -34 3 3 15 58 26 123 25 150
25 297 0 491 -11 83 -20 182 -20 222 0 93 29 258 91 521 55 237 81 393 77 461
-3 40 -5 35 -16 -42z"/>
<path d="M8937 16225 c-5 -16 -12 -214 -17 -440 -8 -399 -7 -411 12 -457 11
-27 24 -48 28 -48 18 0 43 91 47 170 4 63 -2 130 -22 260 -18 117 -29 236 -34
360 -4 123 -9 175 -14 155z"/>
<path d="M8596 15495 c9 -46 58 -146 89 -183 15 -18 48 -44 74 -57 50 -25 76
-50 110 -107 24 -41 41 -49 41 -20 0 47 -92 152 -168 191 -51 26 -80 60 -119
139 -20 40 -31 55 -27 37z"/>
<path d="M9281 15404 c-26 -51 -46 -74 -80 -95 -25 -16 -49 -29 -55 -29 -39 0
-146 -118 -146 -162 0 -29 18 -21 44 20 31 49 52 67 106 90 74 31 142 121 164
215 4 15 5 27 4 27 -2 0 -18 -30 -37 -66z"/>
<path d="M8486 15170 c20 -100 83 -194 166 -247 68 -43 117 -110 143 -193 10
-30 24 -62 32 -70 14 -13 15 -10 9 27 -18 124 -86 226 -199 300 -67 45 -75 54
-115 133 -30 60 -40 75 -36 50z"/>
<path d="M9404 15089 c-34 -78 -69 -115 -139 -150 -104 -52 -167 -139 -190
-262 -12 -62 11 -42 41 35 33 87 80 141 151 174 62 30 125 108 148 188 19 62
14 69 -11 15z"/>
<path d="M8400 14755 c0 -28 51 -133 86 -174 15 -19 52 -49 81 -68 61 -38 104
-93 129 -161 10 -26 24 -63 32 -82 14 -31 16 -33 19 -12 3 12 -3 48 -12 79
-30 104 -85 176 -178 237 -67 43 -89 68 -126 141 -18 35 -30 52 -31 40z"/>
<path d="M9482 14651 c-29 -64 -72 -107 -136 -135 -90 -40 -168 -151 -183
-261 -9 -67 10 -52 37 30 30 90 72 141 145 175 22 10 57 36 77 57 39 40 92
143 86 168 -2 9 -13 -7 -26 -34z"/>
<path d="M8275 14460 c13 -83 90 -197 155 -230 53 -27 116 -102 140 -169 11
-31 27 -69 35 -86 16 -30 16 -30 11 22 -10 107 -88 230 -180 282 -66 38 -100
76 -138 156 -25 51 -28 55 -23 25z"/>
<path d="M9617 14357 c-27 -66 -75 -117 -134 -143 -98 -44 -179 -154 -191
-262 -7 -63 10 -48 39 34 29 83 76 137 148 172 65 33 122 100 147 175 20 61
14 79 -9 24z"/>
<path d="M8085 14200 c17 -61 53 -119 105 -172 46 -46 68 -60 116 -74 32 -9
75 -25 95 -35 55 -27 119 -105 143 -174 16 -47 26 -61 44 -63 20 -3 22 -1 16
25 -21 89 -49 140 -108 198 -67 66 -102 86 -187 109 -75 21 -132 65 -180 138
-47 74 -54 81 -44 48z"/>
<path d="M9787 14048 c-48 -72 -99 -104 -201 -123 -90 -17 -124 -33 -181 -86
-40 -37 -84 -118 -99 -181 -5 -23 -3 -28 13 -28 24 0 37 16 46 57 17 82 112
159 213 175 72 11 113 31 163 80 38 37 95 138 87 156 -2 5 -20 -18 -41 -50z"/>
<path d="M8046 13888 c17 -57 36 -90 75 -133 51 -56 95 -80 172 -94 107 -20
172 -73 208 -170 14 -39 28 -63 41 -67 28 -9 30 -3 12 57 -39 135 -138 225
-269 244 -98 14 -161 56 -212 143 -28 46 -38 54 -27 20z"/>
<path d="M9831 13739 c-49 -72 -99 -98 -207 -108 -99 -9 -151 -30 -201 -83
-32 -33 -65 -97 -77 -150 -6 -25 -3 -28 18 -28 20 0 27 8 41 49 22 66 47 97
106 126 34 18 65 25 106 25 115 1 220 83 247 193 3 15 5 27 4 27 -2 0 -18 -23
-37 -51z"/>
<path d="M7850 13605 c28 -74 63 -111 150 -155 36 -19 69 -25 162 -30 154 -9
208 -33 270 -123 48 -69 78 -85 78 -42 0 66 -70 148 -165 191 -50 23 -79 28
-185 34 -151 9 -185 21 -263 98 -51 50 -57 53 -47 27z"/>
<path d="M10030 13445 c-70 -72 -130 -86 -310 -71 -130 12 -196 -7 -262 -73
-32 -32 -48 -58 -53 -84 -4 -21 -5 -40 -2 -43 12 -13 44 9 75 51 18 25 52 55
75 67 44 23 80 25 259 18 66 -3 83 0 130 23 63 31 91 58 113 110 8 20 14 37
12 37 -2 0 -18 -16 -37 -35z"/>
<path d="M14410 15912 c378 -252 672 -717 854 -1354 49 -170 64 -174 46 -13
-18 163 -47 272 -120 442 -167 387 -501 797 -773 947 -111 61 -115 50 -7 -22z"/>
<path d="M14208 15805 c28 -57 66 -180 118 -388 60 -243 112 -395 189 -552
108 -222 262 -432 446 -610 46 -44 63 -57 38 -30 -195 218 -354 464 -458 707
-51 120 -92 237 -191 543 -55 173 -122 332 -151 359 -6 6 -2 -7 9 -29z"/>
<path d="M14544 15623 c23 -46 73 -211 121 -402 79 -314 153 -507 235 -611 24
-30 75 -90 112 -133 128 -146 205 -263 272 -413 41 -93 47 -86 10 12 -45 122
-125 262 -221 387 -116 152 -164 221 -190 272 -34 67 -99 249 -173 485 -62
196 -157 430 -175 430 -3 0 1 -12 9 -27z"/>
<path d="M17150 13824 c243 -410 294 -983 149 -1668 -16 -77 -27 -141 -25
-143 6 -6 66 124 92 199 49 146 65 250 71 469 6 220 -4 360 -37 534 -53 272
-149 513 -248 623 l-33 37 31 -51z"/>
<path d="M16950 13756 c0 -58 -22 -173 -75 -386 -126 -513 -126 -830 2 -1283
20 -70 38 -126 40 -124 2 2 -8 51 -21 108 -40 166 -57 301 -63 499 -6 229 8
379 72 725 32 173 48 289 52 378 3 70 3 127 -1 127 -3 0 -6 -20 -6 -44z"/>
<path d="M17162 13444 c-3 -70 -25 -185 -77 -394 -94 -381 -108 -561 -61 -760
58 -247 60 -257 60 -462 1 -109 2 -198 2 -198 1 0 7 35 13 79 21 144 15 317
-20 521 -28 164 -30 199 -25 310 3 69 19 202 36 295 78 436 81 458 77 560 -1
55 -4 77 -5 49z"/>
<path d="M14585 13752 c6 -5 42 -30 80 -57 92 -65 255 -228 337 -338 183 -248
348 -626 439 -1007 61 -258 59 -256 55 -80 -3 134 -8 171 -35 273 -115 437
-449 945 -757 1149 -63 42 -145 84 -119 60z"/>
<path d="M14476 13585 c24 -70 50 -177 89 -375 52 -263 81 -373 131 -507 92
-248 268 -527 458 -728 43 -45 41 -41 -17 35 -188 247 -316 486 -408 762 -22
66 -69 236 -105 376 -62 241 -105 375 -140 432 -10 16 -13 18 -8 5z"/>
<path d="M14796 13395 c30 -91 48 -161 75 -295 77 -394 128 -579 189 -687 17
-29 81 -120 143 -202 116 -153 197 -294 247 -429 40 -108 37 -71 -4 53 -47
141 -88 218 -212 402 -59 87 -122 190 -139 228 -39 83 -85 236 -155 515 -54
213 -91 327 -129 395 -12 22 -19 31 -15 20z"/>
<path d="M16363 10605 c174 -357 210 -811 106 -1345 -18 -94 -87 -373 -104
-425 -12 -33 33 35 69 105 96 189 146 444 146 751 0 195 -11 314 -45 485 -41
205 -119 405 -190 489 -20 24 -17 11 18 -60z"/>
<path d="M16137 10536 c-9 -52 -44 -181 -76 -288 -72 -231 -114 -400 -132
-528 -19 -132 -17 -447 4 -580 18 -117 58 -302 64 -297 2 2 -4 51 -12 108 -38
250 -36 543 5 794 11 70 47 238 80 373 32 136 63 274 69 307 12 73 24 205 18
205 -2 0 -11 -42 -20 -94z"/>
<path d="M16336 10246 c-10 -74 -39 -183 -105 -401 -62 -203 -84 -294 -106
-439 -18 -121 -16 -145 22 -366 26 -152 34 -327 21 -475 l-6 -80 14 55 c24 88
29 351 10 507 -31 253 -21 347 79 752 57 232 89 415 83 473 -3 26 -5 21 -12
-26z"/>
<path d="M14621 9126 c62 -179 73 -258 74 -516 0 -183 -4 -259 -18 -343 -41
-241 -124 -521 -231 -774 -31 -73 -56 -135 -56 -138 0 -3 13 9 28 27 151 176
273 516 311 870 25 230 8 542 -39 728 -19 76 -82 230 -93 230 -3 0 8 -38 24
-84z"/>
<path d="M14411 9153 c-2 -38 -59 -188 -131 -343 -39 -83 -88 -194 -110 -246
-131 -316 -184 -638 -160 -984 6 -90 13 -166 14 -168 2 -1 6 93 9 210 3 117
13 263 22 323 24 160 85 389 148 555 30 80 81 212 112 294 61 159 108 328 102
361 -4 18 -4 18 -6 -2z"/>
<path d="M14527 8698 c-16 -46 -65 -161 -109 -257 -143 -312 -218 -531 -218
-638 0 -25 7 -102 16 -171 18 -149 13 -250 -21 -391 -13 -53 -22 -97 -20 -99
2 -2 17 38 33 90 44 135 55 234 46 417 -4 106 -3 174 5 211 18 87 76 258 171
500 85 219 134 376 128 406 -2 8 -16 -22 -31 -68z"/>
<path d="M15995 7043 c-35 -28 -195 -100 -380 -171 -219 -84 -325 -133 -447
-205 -235 -138 -444 -326 -633 -568 -37 -47 -8 -22 105 91 280 280 467 404
930 615 235 107 363 176 423 227 34 29 36 38 2 11z"/>
<path d="M16142 6900 c-63 -150 -196 -333 -358 -491 -231 -224 -541 -418 -934
-585 -133 -57 -131 -67 6 -38 282 58 597 243 882 518 195 188 340 386 402 548
35 90 36 131 2 48z"/>
<path d="M15795 6654 c-33 -19 -125 -59 -205 -90 -256 -100 -383 -154 -480
-206 -160 -85 -183 -104 -374 -311 -111 -120 -241 -230 -342 -287 -67 -39 -65
-51 3 -16 113 57 241 154 382 290 80 78 164 155 186 172 69 54 211 128 455
239 235 107 359 173 415 219 40 33 32 31 -40 -10z"/>
<path d="M8610 4240 l0 -310 340 0 340 0 0 310 0 310 -340 0 -340 0 0 -310z
m628 3 l-3 -258 -282 -3 -283 -2 0 260 0 260 285 0 285 0 -2 -257z"/>
<path d="M4275 3655 c-176 -79 -324 -145 -329 -147 -11 -5 23 -98 39 -104 6
-3 53 14 105 37 l93 42 79 -18 c43 -10 78 -20 78 -22 0 -2 -56 -70 -124 -150
l-124 -146 31 -68 c16 -38 33 -66 38 -64 4 3 76 93 159 200 132 170 156 195
174 189 50 -17 321 -83 324 -79 2 2 -10 34 -27 72 l-30 68 -195 45 c-108 25
-196 48 -196 51 0 3 65 34 144 69 139 60 144 64 135 87 -15 41 -39 83 -47 82
-4 0 -151 -65 -327 -144z"/>
<path d="M13175 3578 c-15 -33 -25 -61 -23 -62 1 -1 127 -113 278 -247 151
-135 281 -249 288 -253 9 -5 20 9 37 49 l25 56 -37 32 c-21 18 -51 44 -67 58
l-29 26 49 109 c56 122 41 113 161 100 l63 -7 27 55 c15 31 25 58 22 60 -2 3
-162 21 -354 40 -193 20 -364 38 -381 40 -31 4 -33 2 -59 -56z m315 -89 c63
-7 118 -15 121 -18 4 -3 -9 -39 -27 -79 l-34 -74 -73 63 c-125 108 -137 118
-137 124 0 4 8 4 18 1 9 -2 69 -10 132 -17z"/>
<path d="M12989 3234 c-72 -108 -129 -197 -127 -198 2 -2 24 -17 50 -35 l47
-31 50 74 51 75 252 -170 c138 -93 255 -169 259 -169 3 0 20 21 37 47 l30 46
-251 170 c-139 94 -254 171 -255 173 -2 1 19 36 47 77 l50 75 -48 31 c-26 17
-51 31 -54 31 -4 0 -66 -88 -138 -196z"/>
<path d="M4670 3234 c-127 -34 -286 -157 -337 -262 -56 -114 -28 -242 73 -331
54 -47 95 -61 179 -61 108 1 232 60 337 161 77 75 108 142 108 232 0 83 -26
144 -88 204 -70 68 -160 87 -272 57z m167 -134 c37 -22 73 -86 73 -127 -1 -71
-66 -152 -173 -216 -115 -69 -206 -70 -266 -2 -62 71 -47 161 41 247 103 101
249 145 325 98z"/>
<path d="M12781 2922 c-47 -32 -254 -273 -243 -283 4 -4 131 -111 282 -238
l275 -232 37 43 c21 24 38 45 38 49 0 4 -144 126 -213 181 l-22 17 34 35 c43
45 62 45 247 9 l138 -26 43 49 c23 27 43 52 43 55 0 12 -245 61 -307 61 -56 0
-64 2 -58 16 3 9 9 38 12 63 7 60 -15 106 -79 164 -79 71 -157 84 -227 37z
m129 -117 c38 -20 60 -52 60 -90 0 -22 -16 -50 -57 -102 -32 -40 -61 -72 -65
-73 -11 0 -138 110 -138 120 0 16 112 141 134 150 29 12 33 12 66 -5z"/>
<path d="M5072 2877 l-42 -43 60 -59 c33 -33 60 -62 60 -66 0 -4 -98 -98 -217
-209 -120 -112 -219 -208 -221 -214 -1 -6 15 -28 36 -49 l39 -38 224 210 224
210 62 -67 61 -67 41 40 c23 21 41 43 41 48 0 8 -306 340 -319 345 -4 1 -26
-17 -49 -41z"/>
<path d="M5216 2295 c-170 -112 -313 -208 -317 -212 -5 -5 13 -26 41 -47 l50
-38 65 46 c36 25 71 46 76 46 9 0 132 -94 178 -136 12 -11 9 -25 -19 -95 l-33
-81 24 -20 c13 -10 36 -28 51 -39 l28 -20 9 23 c131 341 261 687 261 695 0 13
-82 83 -96 82 -5 0 -148 -92 -318 -204z m213 -87 c-27 -67 -53 -126 -58 -131
-6 -6 -34 11 -70 41 l-61 51 63 44 c65 46 170 117 174 117 1 0 -21 -55 -48
-122z"/>
<path d="M12298 2457 l-48 -42 141 -310 c77 -170 149 -330 159 -353 l20 -44
44 39 c25 21 45 43 46 48 0 6 -16 43 -35 84 l-35 73 53 47 c88 80 124 111 132
111 3 0 37 -18 75 -41 76 -45 82 -45 137 13 l32 33 -331 190 c-182 105 -333
191 -337 192 -3 1 -27 -17 -53 -40z m243 -204 c60 -36 109 -69 109 -74 0 -4
-26 -31 -57 -59 l-58 -53 -57 119 c-58 121 -63 134 -52 134 3 0 55 -30 115
-67z"/>
<path d="M12043 2266 l-62 -41 -5 -60 c-3 -33 -9 -127 -13 -209 l-8 -150 -93
137 -93 137 -49 -33 c-26 -17 -46 -36 -42 -42 3 -5 95 -144 205 -307 l200
-297 27 15 c14 9 37 24 49 34 l24 17 -63 93 -62 92 7 79 c4 43 8 79 10 79 2 0
76 -43 165 -95 89 -52 164 -95 167 -95 6 0 123 80 123 85 0 2 -96 54 -212 116
-117 61 -218 115 -223 120 -8 5 -7 59 2 171 7 90 12 170 11 179 -2 13 -16 8
-65 -25z"/>
<path d="M5806 1851 c-103 -170 -186 -314 -186 -319 0 -9 80 -62 93 -62 3 0
35 52 73 115 38 63 72 115 77 115 5 0 39 -18 75 -39 127 -74 194 -75 273 -4
117 106 140 258 50 335 -34 29 -254 168 -266 168 -2 0 -87 -139 -189 -309z
m294 103 c69 -44 80 -59 80 -104 0 -60 -44 -109 -99 -110 -32 0 -133 49 -147
71 -8 13 88 179 104 179 4 0 32 -16 62 -36z"/>
<path d="M6416 1912 c-12 -20 -296 -666 -293 -668 12 -12 102 -43 108 -37 4 4
33 67 64 140 62 139 60 138 114 104 37 -24 49 -66 62 -224 l13 -146 58 -25
c33 -15 62 -26 65 -26 3 0 3 58 0 128 -6 112 -17 175 -41 233 -5 12 0 14 28
11 42 -5 95 11 132 40 37 30 84 133 84 186 0 97 -37 135 -201 208 -175 78
-188 83 -193 76z m208 -219 c60 -31 72 -79 35 -139 -34 -56 -60 -55 -196 3
-69 30 -68 18 -15 135 l31 67 57 -25 c32 -14 71 -32 88 -41z"/>
<path d="M11410 1893 c-30 -13 -56 -26 -57 -27 -3 -3 107 -760 112 -764 1 -2
27 9 57 24 l55 26 -13 72 c-7 39 -13 78 -13 86 -1 10 38 35 107 69 l108 53 61
-63 61 -63 56 25 c30 13 56 28 56 32 0 6 -533 560 -535 556 0 0 -25 -12 -55
-26z m198 -404 c-50 -25 -75 -33 -79 -25 -3 6 -14 61 -23 121 -10 61 -19 119
-22 130 -3 11 40 -27 96 -85 l100 -105 -72 -36z"/>
<path d="M11033 1730 c-24 -11 -43 -22 -43 -25 0 -3 45 -116 100 -252 105
-261 116 -306 80 -338 -39 -36 -94 -15 -127 48 l-14 28 -47 -27 c-26 -15 -48
-28 -50 -30 -7 -5 29 -65 60 -99 40 -46 77 -65 128 -65 73 0 145 42 177 104
20 39 18 130 -6 196 -54 153 -191 475 -203 477 -7 1 -32 -7 -55 -17z"/>
<path d="M6873 1331 l-232 -310 62 -20 c33 -12 63 -17 66 -13 60 86 96 132
105 131 6 0 58 -17 116 -38 l105 -39 0 -88 0 -89 57 -20 c31 -10 59 -17 61
-15 3 3 6 178 8 389 l4 384 -50 18 c-27 10 -55 18 -61 18 -5 1 -114 -138 -241
-308z m232 -37 l-7 -122 -74 25 c-41 14 -74 29 -74 34 0 6 35 59 78 118 59 82
78 103 81 87 1 -12 0 -76 -4 -142z"/>
<path d="M10487 1559 c-87 -20 -146 -68 -188 -149 -31 -61 -38 -198 -14 -289
36 -140 103 -234 200 -282 59 -29 71 -31 135 -27 92 7 164 42 229 114 28 31
51 63 51 71 0 15 -69 275 -75 281 -2 3 -237 -59 -244 -65 -9 -6 23 -113 33
-113 6 0 36 7 66 15 30 8 56 12 59 9 3 -3 11 -24 18 -46 12 -42 12 -42 -30
-84 -128 -127 -277 -46 -327 178 -33 145 19 250 128 265 52 7 95 -10 126 -50
l24 -30 48 28 c27 15 51 29 53 31 7 6 -41 74 -74 103 -54 47 -129 61 -218 40z"/>
<path d="M7461 1493 c-6 -21 -42 -177 -81 -348 -39 -171 -73 -315 -75 -322 -2
-7 35 -21 108 -38 156 -37 217 -42 271 -21 121 46 210 231 211 436 0 85 -3
101 -28 153 -40 80 -75 101 -243 142 -77 19 -142 35 -146 35 -4 0 -12 -17 -17
-37z m201 -133 c91 -25 127 -93 109 -209 -25 -161 -77 -262 -142 -276 -33 -7
-179 21 -179 35 0 11 99 440 105 459 5 14 27 12 107 -9z"/>
<path d="M9834 1420 c-65 -20 -127 -72 -158 -133 -25 -49 -31 -74 -34 -148
-13 -269 114 -469 298 -469 187 0 292 117 291 325 -1 194 -76 352 -196 410
-45 22 -153 29 -201 15z m158 -136 c59 -30 104 -129 115 -249 7 -91 -8 -152
-49 -194 -73 -75 -186 -55 -243 43 -57 97 -71 277 -27 348 44 71 125 91 204
52z"/>
<path d="M8211 1133 c-39 -287 -52 -339 -86 -355 -54 -25 -105 22 -105 97 l0
35 -55 0 -55 0 0 -67 c0 -121 67 -192 177 -193 95 0 149 37 183 127 19 50 99
577 89 587 -2 2 -29 7 -59 11 l-55 7 -34 -249z"/>
<path d="M9417 1363 c-3 -5 4 -130 14 -280 17 -239 18 -276 5 -306 -17 -42
-56 -56 -93 -32 -24 16 -37 40 -47 86 -5 25 -6 26 -61 16 l-56 -11 7 -40 c20
-123 84 -186 188 -186 56 0 93 14 129 48 65 61 71 110 52 387 -8 121 -17 244
-21 273 l-5 52 -54 0 c-30 0 -56 -3 -58 -7z"/>
<path d="M8492 1004 c-79 -196 -141 -359 -138 -361 2 -3 31 -7 63 -10 l58 -5
29 81 c32 93 17 86 184 75 l90 -7 22 -88 22 -89 64 0 c35 0 64 1 64 3 -1 9
-189 740 -192 742 -2 1 -30 6 -64 10 l-60 7 -142 -358z m223 46 c14 -63 28
-123 31 -133 5 -16 -1 -17 -78 -11 -46 4 -84 8 -85 8 -2 2 63 178 93 256 8 19
8 18 39 -120z"/>
</g>
</svg>
